<?xml version="1.0" standalone="no"?>
<!DOCTYPE svg PUBLIC "-//W3C//DTD SVG 20010904//EN"
 "http://www.w3.org/TR/2001/REC-SVG-20010904/DTD/svg10.dtd">
<svg version="1.0" xmlns="http://www.w3.org/2000/svg"
 width="600.000000pt" height="600.000000pt" viewBox="0 0 600.000000 600.000000"
 preserveAspectRatio="xMidYMid meet">
<metadata>
Created by potrace 1.11, written by Peter Selinger 2001-2013
</metadata>
<g transform="translate(0.000000,600.000000) scale(0.100000,-0.100000)"
fill="#000000" stroke="none">
<path d="M3228 5681 c-25 -16 -50 -36 -55 -45 -5 -8 -28 -36 -52 -61 -34 -36
-50 -45 -76 -45 -19 0 -45 -4 -59 -10 -17 -6 -26 -6 -26 0 0 6 -7 10 -15 10
-8 0 -15 -5 -15 -11 0 -5 -4 -8 -9 -5 -4 3 -20 -8 -35 -24 -24 -27 -65 -43
-51 -20 3 6 1 10 -4 10 -6 0 -11 -4 -11 -10 0 -5 -4 -10 -10 -10 -22 0 -8 29
18 38 25 10 23 10 -21 11 -30 1 -46 -3 -42 -9 4 -6 -10 -10 -34 -10 -22 0 -43
-4 -46 -10 -3 -5 -34 -10 -68 -10 -46 0 -68 -5 -87 -20 -14 -11 -41 -20 -61
-20 -23 0 -42 -7 -54 -20 -10 -11 -24 -20 -32 -20 -7 0 -13 -4 -13 -9 0 -5
-15 -16 -33 -24 -18 -9 -43 -27 -56 -41 -15 -15 -35 -26 -51 -26 -20 0 -31 -8
-46 -35 -11 -20 -28 -37 -44 -40 -35 -9 -150 -140 -150 -172 0 -11 -11 -30
-25 -43 -29 -27 -55 -75 -55 -100 0 -9 -6 -22 -12 -29 -11 -11 -10 -13 2 -9 8
3 20 14 26 26 6 12 13 19 17 16 3 -3 11 -3 17 1 9 6 9 10 -1 16 -10 6 -9 10 6
15 11 4 32 20 47 36 15 15 32 28 38 28 6 0 15 11 20 25 5 14 16 25 25 25 8 0
22 11 30 24 9 13 25 26 36 29 12 3 18 10 15 15 -3 5 1 15 9 22 10 9 15 9 15 1
0 -15 37 -14 43 2 4 7 6 6 6 -4 1 -24 28 -42 48 -34 17 7 16 8 -2 15 -17 7
-17 9 -2 9 9 1 17 8 17 16 0 9 6 12 15 9 8 -4 15 -15 15 -25 0 -13 7 -19 22
-19 17 0 19 3 10 12 -15 15 -16 38 -1 38 6 0 9 -7 5 -15 -7 -18 10 -20 18 -2
5 10 7 10 12 0 3 -7 16 -13 29 -13 13 0 35 -5 49 -11 20 -10 28 -9 41 5 15 15
15 17 1 32 -20 19 -20 25 -1 18 11 -5 15 2 16 27 2 31 2 31 6 6 2 -15 14 -32
25 -38 19 -10 20 -9 16 14 -8 40 6 53 30 29 18 -18 19 -21 3 -36 -11 -12 -13
-19 -5 -24 6 -4 14 -14 17 -22 3 -9 8 -3 12 18 10 46 25 22 25 -40 0 -28 5
-48 11 -48 6 0 9 7 6 14 -4 10 -1 13 9 9 18 -7 18 11 -1 31 -8 8 -15 23 -15
32 0 13 3 15 11 7 6 -6 17 -9 24 -7 7 3 19 -3 26 -13 22 -29 39 -26 39 7 0 16
4 30 10 30 5 0 7 7 4 15 -4 8 -1 15 6 15 12 0 10 -18 -6 -72 -7 -23 12 -23 24
-1 9 14 10 14 16 -5 11 -32 23 -27 18 8 -3 22 0 30 11 30 22 0 31 -38 16 -67
-11 -20 -11 -26 1 -33 12 -8 17 1 25 43 9 44 12 48 18 27 4 -14 7 -36 7 -50 1
-24 1 -24 15 -5 15 19 15 19 30 -3 9 -12 22 -19 30 -16 9 4 15 0 15 -7 1 -9 4
-8 11 4 11 18 54 23 64 7 4 -6 13 -5 25 2 14 9 22 9 34 -1 11 -9 16 -10 16 -2
0 6 7 11 15 11 10 0 15 -11 16 -32 1 -18 3 -25 6 -15 2 9 8 17 12 17 4 0 21
11 37 25 19 17 35 23 51 19 23 -6 56 15 113 71 30 30 59 21 41 -13 -16 -29
-14 -35 9 -29 11 3 23 1 26 -4 8 -14 40 -11 54 6 15 18 31 20 28 4 -2 -6 9
-13 25 -14 16 -2 27 1 27 8 0 7 4 6 10 -3 5 -8 6 -25 3 -38 -5 -22 -4 -23 15
-13 29 15 42 14 42 -5 0 -9 -5 -12 -12 -8 -7 4 -8 3 -4 -4 12 -19 36 -14 33 7
-2 20 0 21 29 21 13 0 15 -7 11 -30 -5 -24 -3 -30 11 -30 17 0 62 -49 62 -68
0 -5 8 -16 18 -26 11 -9 24 -34 31 -55 6 -21 18 -44 26 -51 8 -7 15 -23 15
-35 0 -13 7 -36 15 -51 8 -16 15 -48 15 -72 0 -24 4 -51 10 -61 5 -10 10 -46
11 -80 1 -34 5 -64 9 -66 10 -6 11 -95 2 -95 -10 0 -6 -212 7 -301 11 -83 1
-146 -25 -156 -13 -5 -13 -8 -2 -15 9 -7 8 -8 -6 -4 -11 4 -23 1 -27 -5 -4 -6
-20 -12 -37 -13 -17 0 -28 -5 -24 -10 3 -5 -5 -6 -19 -3 -13 4 -41 7 -61 7
-20 0 -43 7 -52 15 -8 8 -23 15 -34 15 -11 0 -25 7 -32 15 -10 13 -9 15 11 16
15 1 8 4 -16 9 -22 4 -43 6 -48 3 -4 -2 -7 -1 -6 4 4 24 -7 32 -68 50 -54 16
-86 20 -153 16 -47 -3 -134 -6 -195 -7 -60 -2 -123 -6 -139 -11 -20 -5 -31 -4
-37 6 -6 10 -9 10 -9 2 0 -7 -7 -10 -15 -7 -10 4 -15 0 -15 -12 0 -16 -2 -17
-10 -4 -9 13 -12 13 -21 -2 -5 -10 -15 -18 -21 -18 -22 0 -80 -53 -90 -81 -6
-18 -19 -31 -35 -35 -16 -4 -21 -9 -13 -14 6 -4 -9 -10 -35 -13 -56 -8 -105
13 -105 44 0 11 -7 22 -15 25 -8 4 -15 13 -15 21 0 9 -5 11 -12 6 -16 -9 -45
-5 -72 11 -12 7 -48 21 -81 31 -55 17 -71 17 -185 6 -116 -11 -158 -17 -170
-21 -3 -1 -23 -1 -45 -1 -30 1 -36 -1 -25 -8 19 -13 9 -14 -23 -2 -21 8 -26 6
-30 -10 -3 -10 -12 -19 -21 -19 -9 0 -16 -7 -16 -15 0 -8 -8 -15 -17 -16 -16
0 -15 -1 2 -8 14 -6 7 -9 -29 -14 -71 -10 -74 -9 -79 16 l-4 22 -2 -23 c0 -12
-19 -38 -41 -58 -22 -20 -40 -42 -40 -50 0 -7 13 -28 30 -47 32 -37 47 -70 60
-132 32 -156 65 -227 118 -254 106 -54 408 -62 522 -15 19 8 50 29 69 47 32
31 33 31 27 7 -5 -20 -3 -19 8 5 15 34 106 268 128 330 12 35 18 40 49 43 47
4 56 -9 79 -107 11 -44 31 -104 46 -133 15 -29 37 -74 50 -99 31 -61 80 -107
121 -115 32 -6 61 4 37 13 -6 2 -20 10 -30 18 -16 11 -11 11 33 0 160 -42 478
-18 570 42 36 23 70 98 88 194 21 108 32 136 57 142 11 3 17 10 13 16 -3 6 -1
11 5 11 6 0 9 4 6 8 -3 5 1 9 9 9 8 0 12 -4 9 -9 -5 -8 41 9 61 23 6 4 28 10
50 13 39 7 41 6 52 -26 24 -70 6 -227 -46 -403 -5 -16 -12 -51 -16 -77 -3 -27
-10 -48 -16 -48 -5 0 -9 -16 -9 -35 0 -39 8 -42 50 -20 32 17 38 33 18 54 -11
10 -9 11 7 5 18 -7 18 -6 -3 21 -20 25 -21 30 -8 44 12 11 20 12 40 3 27 -12
36 -7 36 20 0 14 -6 19 -22 18 -57 -5 -57 -5 -43 58 7 31 21 89 30 128 17 67
19 70 36 56 13 -11 15 -20 8 -33 -12 -23 -12 -49 1 -49 27 0 120 93 120 120 0
13 -4 19 -11 14 -7 -4 -9 0 -5 14 4 13 1 22 -9 26 -8 3 -15 15 -15 26 0 11 -7
20 -15 20 -9 0 -12 6 -9 15 4 8 1 15 -5 15 -23 0 -10 19 18 25 20 4 30 13 34
31 5 27 -9 33 -16 7 -4 -17 -5 -17 -6 0 -1 13 -6 17 -20 12 -23 -7 -37 10 -17
22 7 4 24 26 36 48 12 22 16 34 9 28 -7 -7 -21 -13 -31 -13 -28 0 -23 39 7 50
14 5 25 14 25 20 0 6 4 9 9 6 5 -4 9 88 10 217 1 122 6 247 12 277 10 54 7
270 -6 376 -6 48 -9 52 -38 58 -42 9 -67 34 -67 68 0 31 -34 91 -70 123 -12
11 -40 45 -62 76 -21 31 -51 62 -66 70 -15 8 -47 34 -72 58 -25 24 -55 50 -67
58 -13 9 -23 23 -23 32 0 9 -23 63 -51 119 -37 75 -66 117 -103 153 -28 27
-56 49 -62 49 -6 0 -17 7 -24 15 -9 11 -35 15 -104 15 -85 0 -96 -2 -138 -29z
m-18 -165 c0 -8 -6 -18 -12 -22 -7 -4 -10 -4 -6 1 4 4 3 14 -3 22 -9 10 -8 13
5 13 9 0 16 -6 16 -14z m40 -6 c0 -5 -4 -10 -10 -10 -5 0 -10 5 -10 10 0 6 5
10 10 10 6 0 10 -4 10 -10z m107 -6 c-3 -3 -12 -4 -19 -1 -8 3 -5 6 6 6 11 1
17 -2 13 -5z m123 0 c0 -13 -21 -44 -30 -44 -6 0 -10 11 -10 25 0 18 5 25 20
25 11 0 20 -3 20 -6z m115 -14 c-3 -5 -10 -10 -16 -10 -5 0 -9 5 -9 10 0 6 7
10 16 10 8 0 12 -4 9 -10z m55 -30 c0 -5 -4 -10 -10 -10 -5 0 -10 5 -10 10 0
6 5 10 10 10 6 0 10 -4 10 -10z m-840 -20 c0 -5 -5 -10 -11 -10 -5 0 -7 5 -4
10 3 6 8 10 11 10 2 0 4 -4 4 -10z m210 -4 c0 -2 -8 -10 -17 -17 -16 -13 -17
-12 -4 4 13 16 21 21 21 13z m-207 -201 c4 -8 2 -17 -3 -20 -6 -4 -10 3 -10
14 0 25 6 27 13 6z m367 -100 c0 -8 -4 -15 -10 -15 -5 0 -10 7 -10 15 0 8 5
15 10 15 6 0 10 -7 10 -15z m-3 -47 c-3 -8 -6 -5 -6 6 -1 11 2 17 5 13 3 -3 4
-12 1 -19z m873 -1260 c0 -5 -7 -8 -15 -8 -15 0 -20 21 -8 33 7 7 23 -11 23
-25z m-116 -7 c9 -13 -55 -34 -68 -21 -6 6 -1 13 15 19 31 13 46 13 53 2z
m-2013 -44 c9 -12 -21 -47 -40 -47 -14 0 -40 28 -41 43 -1 23 66 26 81 4z
m2171 0 c12 -9 14 -17 7 -28 -8 -12 -12 -11 -24 5 -26 34 -16 47 17 23z
m-2197 -146 c31 -28 70 -53 86 -56 16 -4 29 -11 29 -16 0 -12 16 -11 64 2 25
7 35 14 27 18 -9 6 -5 13 12 24 26 17 97 13 97 -5 0 -6 7 -8 15 -5 8 4 17 2
20 -3 4 -6 16 -10 28 -11 18 0 15 -4 -13 -16 -19 -8 -51 -13 -71 -11 -21 2
-35 0 -33 -4 2 -4 -10 -9 -28 -11 -25 -3 -21 -4 17 -6 28 -1 59 -6 70 -10 18
-8 16 -10 -15 -20 -30 -9 -23 -10 52 -8 81 3 87 2 73 -13 -19 -21 -9 -31 21
-24 14 4 24 2 24 -4 0 -12 55 0 105 23 32 14 50 18 78 16 22 -1 15 -36 -20
-102 -43 -81 -116 -104 -333 -104 -247 0 -298 35 -351 240 -17 64 -25 155 -15
155 3 0 30 -22 61 -49z m1809 -73 c-26 -187 -71 -226 -279 -248 -209 -22 -396
17 -436 92 -8 16 -8 23 2 30 11 8 10 9 -3 4 -25 -8 -34 15 -12 27 27 16 146
17 164 2 8 -7 25 -15 38 -18 16 -4 22 -1 22 12 0 24 41 41 101 41 57 0 142 22
209 53 41 19 137 43 183 46 15 1 16 -5 11 -41z"/>
<path d="M2721 5098 c1 -7 5 -24 9 -38 8 -24 8 -24 9 7 1 17 -3 35 -9 38 -5 3
-10 0 -9 -7z"/>
<path d="M1862 4838 c-7 -7 -12 -23 -12 -37 0 -13 -8 -33 -17 -43 -9 -11 -20
-42 -24 -71 -4 -29 -13 -72 -20 -97 -6 -25 -13 -99 -15 -165 l-2 -120 13 115
c8 63 18 129 24 145 5 17 13 48 16 70 9 53 26 106 41 125 15 19 28 90 16 90
-4 0 -13 -5 -20 -12z"/>
<path d="M1770 4237 c0 -25 4 -49 10 -52 6 -4 7 11 3 42 -8 63 -13 67 -13 10z"/>
<path d="M1792 4075 c0 -27 3 -59 8 -70 7 -17 9 -16 9 10 0 17 -4 48 -8 70
l-9 40 0 -50z"/>
<path d="M1812 3955 c0 -16 2 -22 5 -12 2 9 2 23 0 30 -3 6 -5 -1 -5 -18z"/>
<path d="M4216 3827 c-27 -22 -28 -25 -17 -62 6 -22 11 -56 11 -75 0 -19 5
-42 10 -50 8 -13 10 -12 10 3 0 9 4 25 9 35 31 61 43 172 19 172 -7 0 -26 -10
-42 -23z"/>
<path d="M2433 3226 c-13 -6 -23 -16 -23 -23 0 -7 -6 -13 -14 -13 -8 0 -30
-16 -50 -35 -20 -19 -47 -42 -60 -51 -14 -8 -28 -24 -31 -35 -4 -10 -12 -19
-19 -19 -7 0 -21 -9 -32 -21 -10 -12 -30 -27 -44 -34 -15 -8 -35 -29 -45 -49
-17 -30 -18 -40 -7 -69 9 -26 9 -40 0 -65 -12 -31 -28 -43 -28 -21 0 5 -4 8
-9 5 -4 -3 -6 6 -3 21 3 17 1 24 -6 19 -6 -3 -17 0 -25 9 -13 13 -16 13 -21
-1 -3 -8 -10 -12 -16 -9 -6 4 -8 11 -5 16 4 5 -4 7 -17 6 -13 -2 -21 -8 -19
-13 2 -5 6 -16 8 -24 3 -8 11 -29 19 -46 8 -17 15 -42 17 -55 2 -12 9 -25 15
-27 7 -2 12 -8 12 -14 0 -5 14 -23 30 -40 17 -16 30 -40 30 -54 0 -13 5 -24
10 -24 6 0 9 -6 8 -12 -2 -7 2 -12 8 -11 5 1 11 -15 12 -35 2 -24 10 -44 24
-55 12 -10 22 -27 23 -39 1 -11 6 -23 11 -26 5 -4 15 -19 21 -34 7 -16 17 -28
23 -28 5 0 10 -6 10 -13 0 -7 9 -23 21 -36 34 -37 37 -115 5 -184 -15 -33 -32
-57 -41 -57 -9 0 -15 -9 -15 -21 0 -11 -8 -33 -19 -47 -10 -15 -26 -45 -36
-67 -10 -23 -19 -34 -22 -27 -5 13 14 69 39 115 11 23 2 35 -14 19 -7 -7 -23
-12 -37 -12 -13 0 -39 -11 -57 -25 -38 -29 -50 -31 -62 -9 -8 14 -12 14 -30 3
-26 -16 -28 -27 -7 -35 19 -8 20 -24 1 -24 -8 0 -18 -9 -21 -20 -4 -11 -11
-18 -16 -14 -6 3 -8 12 -5 20 3 7 1 16 -5 19 -5 4 -7 11 -4 16 4 5 -1 9 -9 9
-8 0 -18 -4 -21 -10 -3 -5 -14 -10 -23 -10 -23 0 -98 -38 -94 -48 2 -4 -7 -10
-20 -13 -15 -3 -22 -11 -20 -23 3 -15 -1 -17 -22 -12 -29 7 -31 4 -15 -25 11
-22 3 -59 -13 -59 -6 0 -8 14 -4 38 l6 37 -20 -24 c-11 -13 -24 -20 -28 -16
-4 4 -1 10 6 12 21 8 13 25 -9 18 -16 -5 -20 -3 -17 12 4 26 -20 20 -120 -28
-58 -28 -86 -48 -92 -65 -11 -27 -37 -32 -46 -9 -8 21 -41 19 -71 -5 -14 -11
-29 -18 -33 -15 -4 3 -10 -4 -13 -15 -5 -20 -27 -28 -27 -10 0 18 -28 11 -55
-14 -15 -14 -24 -30 -20 -36 4 -6 -6 -8 -28 -6 -28 4 -36 1 -40 -15 -3 -10
-13 -22 -24 -25 -10 -3 -26 -10 -35 -15 -10 -5 -24 -9 -32 -9 -8 0 -16 -7 -20
-15 -3 -8 -13 -15 -22 -15 -18 0 -114 -65 -126 -85 -4 -7 -37 -41 -73 -76 -39
-38 -65 -72 -65 -85 0 -12 -13 -35 -30 -52 -22 -23 -30 -42 -30 -67 0 -19 -4
-35 -10 -35 -5 0 -10 -11 -10 -24 0 -14 -5 -28 -10 -31 -6 -3 -10 -21 -10 -40
0 -19 -4 -36 -9 -39 -5 -3 -11 -23 -14 -43 -3 -21 -12 -72 -21 -113 -22 -105
-33 -164 -45 -245 -6 -38 -13 -86 -16 -105 -13 -79 -27 -221 -31 -323 -3 -59
-9 -107 -15 -107 -5 0 -9 -9 -9 -20 0 -20 7 -20 2795 -20 l2795 0 0 531 c0
522 0 531 -20 536 -11 3 -20 14 -20 24 0 11 -8 23 -17 26 -10 4 -26 17 -36 30
-14 17 -25 21 -43 17 -24 -6 -35 11 -12 18 17 6 -39 58 -62 58 -11 0 -20 5
-20 10 0 6 4 10 10 10 5 0 -1 11 -14 25 -13 14 -28 25 -35 25 -6 0 -16 9 -23
20 -7 11 -18 20 -25 20 -7 0 -27 13 -45 28 -18 16 -55 42 -83 57 -27 16 -71
44 -97 62 -26 18 -56 33 -66 33 -10 0 -22 4 -27 8 -6 5 -26 14 -45 21 -19 7
-48 19 -65 26 -16 8 -68 31 -115 51 -47 21 -94 46 -105 55 -11 10 -42 24 -70
31 -27 7 -69 23 -93 36 -24 13 -66 30 -92 38 -27 8 -52 19 -55 24 -3 6 -17 10
-29 10 -13 0 -29 6 -35 14 -7 8 -26 18 -42 21 -16 4 -31 11 -34 16 -4 5 -15 9
-25 9 -11 0 -35 9 -55 20 -20 11 -43 20 -52 20 -21 0 -159 67 -199 96 -21 15
-50 61 -88 138 -32 63 -64 120 -72 127 -9 7 -22 26 -31 43 -26 50 -123 146
-195 193 -38 24 -68 48 -68 52 0 16 40 161 49 179 5 9 15 47 21 82 6 36 16 70
22 77 13 16 27 175 17 187 -5 6 -9 1 -9 -12 0 -32 -23 -102 -34 -102 -4 0 -6
-17 -3 -37 3 -21 3 -31 1 -22 -4 14 -9 15 -28 6 -14 -7 -22 -17 -18 -26 4 -10
-1 -13 -21 -9 -16 3 -28 0 -31 -8 -6 -15 -31 -14 -55 0 -12 8 -24 -2 -35 -29
-2 -6 -11 -5 -25 3 -17 10 -21 10 -19 0 2 -8 -6 -12 -22 -10 -56 7 -75 10 -80
12 -3 1 -13 2 -22 1 -10 -1 -18 4 -18 12 0 8 -7 17 -15 21 -8 3 -15 12 -15 21
0 8 -5 15 -11 15 -5 0 -7 5 -4 10 3 6 -4 10 -17 10 -18 0 -20 -2 -8 -10 13 -8
12 -10 -3 -10 -10 0 -22 11 -27 25 -6 16 -17 25 -30 25 -23 0 -81 39 -117 78
-13 14 -33 30 -45 37 -44 22 -72 40 -86 53 -20 18 -37 10 -38 -19 -2 -41 -23
-93 -43 -106 -10 -6 -50 -14 -87 -18 -87 -7 -98 -11 -160 -50 -55 -36 -114
-54 -114 -36 0 11 -18 9 -73 -6 -11 -3 -30 9 -54 36 -34 39 -37 40 -55 24 -11
-9 -18 -11 -18 -5 0 7 -16 13 -37 13 -22 1 -30 3 -18 6 27 7 36 25 19 37 -15
11 -14 17 23 119 14 42 17 74 6 80 -5 2 -18 -1 -30 -7z m776 -190 c29 -23 62
-45 72 -51 11 -5 19 -13 19 -17 0 -5 6 -8 14 -8 7 0 19 -7 26 -15 11 -13 8
-15 -13 -15 -14 0 -29 5 -32 10 -4 7 -13 6 -27 -1 -18 -10 -20 -9 -15 5 4 10
1 16 -9 16 -8 0 -19 -11 -24 -25 -11 -30 -25 -34 -17 -5 6 22 -12 23 -30 0
-10 -13 -14 -12 -28 5 -17 21 -17 15 2 -32 4 -10 -5 -5 -20 11 -26 28 -66 40
-78 24 -3 -5 -12 3 -19 18 -14 25 -13 28 43 80 35 33 63 52 70 47 7 -3 36 -25
66 -47z m-779 -16 c0 -5 -9 -10 -20 -10 -11 0 -20 5 -20 10 0 6 9 10 20 10 11
0 20 -4 20 -10z m685 -110 c8 0 15 -4 15 -10 0 -5 -6 -9 -12 -7 -15 2 -37 28
-37 42 0 6 4 2 10 -7 5 -10 17 -18 24 -18z m-675 4 c0 -8 -4 -12 -10 -9 -5 3
-10 10 -10 16 0 5 5 9 10 9 6 0 10 -7 10 -16z m759 -17 c12 -15 12 -17 -3 -11
-9 3 -16 13 -16 22 0 8 1 13 3 11 1 -2 9 -12 16 -22z m-729 -107 c0 -5 -4 -10
-10 -10 -5 0 -10 5 -10 10 0 6 5 10 10 10 6 0 10 -4 10 -10z m40 -8 c0 -5 14
-7 30 -6 39 3 70 -6 70 -18 0 -6 -24 -8 -62 -5 -35 4 -67 6 -72 6 -11 1 14 31
25 31 5 0 9 -4 9 -8z m-385 -12 c-3 -5 -12 -10 -18 -10 -7 0 -6 4 3 10 19 12
23 12 15 0z m583 -15 c12 0 25 -8 28 -18 3 -9 10 -15 15 -11 19 11 60 12 56 0
-8 -24 -71 -26 -129 -4 -64 25 -81 52 -25 41 17 -4 42 -7 55 -8z m-588 -29
c14 -18 14 -18 -7 -6 -12 8 -19 18 -16 23 3 4 6 7 7 5 1 -2 8 -12 16 -22z
m492 -63 c20 -3 46 -14 57 -25 12 -10 21 -14 21 -8 0 15 52 12 92 -5 20 -8 39
-10 44 -5 5 4 26 13 46 18 28 8 41 7 57 -4 18 -13 24 -13 45 1 15 10 33 14 46
10 18 -6 21 -13 18 -44 l-3 -37 50 1 c69 2 72 3 89 20 19 19 106 33 106 16 0
-6 -10 -11 -22 -11 l-22 0 22 -16 c27 -19 28 -34 2 -62 -12 -12 -16 -22 -9
-22 6 0 1 -8 -12 -19 -21 -17 -22 -21 -9 -37 14 -16 13 -17 -8 -12 -12 4 -20
3 -17 -2 2 -4 -7 -20 -20 -34 -14 -15 -25 -23 -26 -19 0 4 -4 -2 -10 -15 -5
-13 -13 -21 -18 -17 -6 3 -10 -5 -10 -17 0 -13 -1 -33 -1 -45 0 -13 -5 -23
-11 -23 -8 0 -9 -12 -5 -32 5 -31 5 -32 -9 -14 -8 11 -15 14 -15 7 0 -7 -5 -9
-11 -5 -8 4 -7 0 1 -15 6 -12 15 -19 20 -16 4 3 6 -5 2 -17 -3 -12 -7 -17 -10
-10 -2 7 -8 10 -13 6 -5 -3 -9 0 -9 5 0 6 -7 11 -15 11 -8 0 -15 -7 -15 -16 0
-8 -5 -24 -11 -35 -10 -20 -11 -20 -24 -2 -13 17 -14 17 -20 1 -4 -10 -11 -16
-15 -13 -5 3 -6 -5 -2 -17 3 -14 2 -19 -6 -14 -7 4 -12 3 -12 -1 0 -5 -14 -17
-30 -26 -26 -16 -31 -16 -36 -3 -5 12 -8 12 -24 -2 -69 -64 -70 -64 -70 -48 0
9 -6 19 -14 22 -8 3 -12 13 -9 25 3 11 0 19 -6 19 -7 0 -11 -7 -9 -16 4 -20
-38 -39 -48 -22 -5 7 -2 8 6 3 9 -5 11 -4 6 4 -4 6 -12 9 -17 5 -5 -3 -7 -10
-4 -15 4 -5 1 -9 -4 -9 -18 0 -26 5 -23 13 1 4 -3 7 -9 7 -6 0 -9 9 -6 19 3
14 1 18 -9 14 -8 -3 -14 0 -14 6 0 7 -8 7 -26 1 -23 -9 -25 -8 -19 12 6 22 6
22 -15 -2 l-21 -25 7 30 c7 27 6 29 -9 17 -15 -12 -15 -10 -7 19 5 18 7 35 4
38 -2 3 -8 -6 -12 -19 -6 -25 -6 -25 -12 5 -6 32 18 98 32 89 4 -3 5 2 2 10
-3 9 -10 13 -15 10 -5 -3 -9 2 -9 10 0 21 -9 20 -33 -1 -20 -17 -20 -17 -13 2
22 57 16 66 -24 38 -24 -16 -25 -16 -9 3 11 13 14 25 9 39 -5 11 -9 14 -9 8
-1 -7 -5 -13 -10 -13 -5 0 -7 10 -3 22 3 14 2 19 -6 14 -7 -4 -12 -1 -12 9 0
9 5 13 11 9 8 -5 8 -1 0 13 -6 11 -8 23 -4 26 3 4 -2 9 -11 13 -9 3 -16 14
-16 24 0 11 -4 21 -10 25 -10 6 -2 36 14 47 7 5 7 8 1 8 -8 0 -12 77 -6 113 0
5 16 -1 34 -12 18 -11 42 -20 52 -19 11 1 30 -2 43 -6 20 -7 22 -4 22 24 0 27
3 31 18 25 9 -4 34 -9 54 -12z m498 -16 c0 -7 -5 -18 -12 -25 -7 -7 -18 -12
-25 -12 -17 0 -17 37 0 43 22 10 37 7 37 -6z m-906 -26 c2 -3 -3 -15 -11 -26
-14 -18 -15 -18 -9 -1 4 12 0 23 -11 32 -16 12 -16 13 5 7 12 -3 24 -8 26 -12z
m906 -41 c0 -5 -4 -10 -10 -10 -5 0 -10 5 -10 10 0 6 5 10 10 10 6 0 10 -4 10
-10z m665 -154 c-5 -75 -4 -106 5 -111 6 -4 28 -32 47 -62 32 -51 35 -60 28
-102 -4 -25 -6 -81 -5 -124 2 -114 -33 -194 -130 -296 -19 -21 -49 -53 -66
-72 -17 -19 -65 -59 -106 -89 -74 -54 -127 -119 -132 -164 -2 -12 -13 -52 -24
-90 -12 -37 -22 -74 -22 -82 0 -18 30 -18 56 1 12 8 24 11 28 8 3 -3 6 -1 6 5
0 7 5 12 10 12 51 0 -118 -308 -171 -309 -35 -2 -284 -174 -274 -191 3 -5 -11
-14 -30 -20 -19 -6 -35 -15 -35 -20 0 -4 -14 -13 -31 -20 -17 -7 -38 -25 -47
-39 -9 -14 -17 -28 -18 -29 -1 -2 -54 47 -117 108 -105 102 -120 121 -177 228
-83 157 -86 180 -52 397 8 49 31 105 32 76 0 -8 3 -12 6 -8 3 3 17 -7 31 -24
14 -16 29 -29 35 -29 21 0 -6 59 -82 179 -75 117 -108 187 -145 309 -21 72
-30 174 -17 198 10 18 11 17 21 -8 5 -14 16 -30 25 -35 8 -4 34 -33 57 -63 57
-72 87 -100 146 -130 26 -14 54 -31 61 -37 7 -7 20 -13 27 -13 8 0 24 -10 35
-22 12 -13 34 -23 53 -24 17 -1 33 -7 35 -13 2 -6 10 -11 18 -11 18 0 95 -80
88 -91 -3 -5 3 -12 13 -16 10 -4 20 -10 23 -13 3 -4 24 -9 46 -12 37 -5 44 -3
63 23 19 26 20 29 4 38 -16 8 -15 10 7 16 22 5 80 71 80 90 0 4 13 19 29 34
37 35 63 26 41 -13 -7 -14 -10 -29 -7 -33 4 -3 7 -1 7 7 0 10 3 10 17 -1 9 -8
18 -10 20 -4 11 33 46 76 57 72 8 -3 13 1 12 10 0 9 5 18 12 20 6 3 12 -3 12
-12 0 -26 17 -8 24 25 4 24 12 32 36 37 29 5 67 52 54 66 -3 3 -2 26 1 51 6
40 10 46 26 41 15 -5 19 -1 19 19 0 14 5 26 10 26 6 0 10 10 10 23 0 12 7 33
14 47 35 63 76 146 76 153 0 5 -6 5 -12 1 -7 -4 -4 2 7 13 11 11 23 19 26 17
4 -2 16 17 28 44 12 26 26 54 31 62 6 8 18 30 27 48 9 17 19 32 21 32 2 0 1
-47 -3 -104z m-1310 -145 c3 -5 1 -12 -5 -16 -5 -3 -10 1 -10 9 0 18 6 21 15
7z m19 -42 c14 -7 22 -17 19 -25 -3 -8 -9 -11 -14 -8 -5 3 -7 9 -4 14 3 4 -3
6 -13 3 -12 -3 -19 1 -19 11 0 19 0 19 31 5z m646 -111 c0 -5 -4 -8 -10 -8 -5
0 -10 10 -10 23 0 18 2 19 10 7 5 -8 10 -18 10 -22z m-140 -28 c0 -5 -5 -10
-11 -10 -5 0 -7 5 -4 10 3 6 8 10 11 10 2 0 4 -4 4 -10z m-127 -85 c-3 -9 -8
-14 -10 -11 -3 3 -2 9 2 15 9 16 15 13 8 -4z m-260 -20 c-3 -9 -8 -14 -10 -11
-3 3 -2 9 2 15 9 16 15 13 8 -4z m-446 -177 c-3 -8 -6 -5 -6 6 -1 11 2 17 5
13 3 -3 4 -12 1 -19z m-46 -25 c-12 -20 -14 -14 -5 12 4 9 9 14 11 11 3 -2 0
-13 -6 -23z m-321 1 c0 -2 -7 -4 -15 -4 -8 0 -15 4 -15 10 0 5 7 7 15 4 8 -4
15 -8 15 -10z m-63 -16 c-3 -8 -6 -5 -6 6 -1 11 2 17 5 13 3 -3 4 -12 1 -19z
m13 -33 c0 -8 -4 -15 -8 -15 -5 0 -9 7 -9 15 0 8 4 15 9 15 4 0 8 -7 8 -15z
m1180 -10 c7 -14 10 -28 6 -32 -10 -10 -48 36 -40 48 9 15 20 10 34 -16z m230
-15 c0 -5 -4 -10 -10 -10 -5 0 -10 5 -10 10 0 6 5 10 10 10 6 0 10 -4 10 -10z
m-1831 -54 l24 -13 -29 -8 c-16 -4 -45 -8 -64 -10 l-35 -2 33 14 c18 7 30 18
27 23 -9 14 16 12 44 -4z m-313 -253 c-10 -10 -19 5 -10 18 6 11 8 11 12 0 2
-7 1 -15 -2 -18z m104 -48 c0 -12 -19 -12 -23 0 -4 9 -1 12 9 8 7 -3 14 -7 14
-8z m-93 -1 c-3 -3 -12 -4 -19 -1 -8 3 -5 6 6 6 11 1 17 -2 13 -5z m936 -39
c-3 -9 -8 -14 -10 -11 -3 3 -2 9 2 15 9 16 15 13 8 -4z m-1185 -20 c-3 -3 -9
2 -12 12 -6 14 -5 15 5 6 7 -7 10 -15 7 -18z m112 15 c0 -5 -5 -10 -11 -10 -5
0 -7 5 -4 10 3 6 8 10 11 10 2 0 4 -4 4 -10z m1417 -182 c-3 -8 -6 -5 -6 6 -1
11 2 17 5 13 3 -3 4 -12 1 -19z m3573 -9 c0 -5 -4 -9 -10 -9 -5 0 -10 7 -10
16 0 8 5 12 10 9 6 -3 10 -10 10 -16z m-3522 -167 c16 -29 10 -39 -9 -16 -18
22 -37 80 -44 134 -5 40 -3 38 18 -25 12 -38 28 -81 35 -93z m1062 29 c-18
-55 -38 -84 -51 -75 -14 8 -10 24 6 24 9 0 15 9 15 21 0 17 34 79 44 79 2 0
-5 -22 -14 -49z m50 -165 c0 -3 -4 -8 -10 -11 -5 -3 -10 -1 -10 4 0 6 5 11 10
11 6 0 10 -2 10 -4z m-187 -25 c-5 -20 -31 -36 -42 -25 -5 5 34 44 44 44 2 0
1 -9 -2 -19z m-143 -27 c0 -2 -12 -4 -26 -4 -14 0 -23 4 -20 9 6 8 46 4 46 -5z
m96 -14 c8 0 14 -4 14 -10 0 -10 -35 -9 -46 2 -3 4 -2 12 2 19 6 10 9 10 12 1
2 -7 10 -12 18 -12z m1141 -76 c-3 -3 -12 -4 -19 -1 -8 3 -5 6 6 6 11 1 17 -2
13 -5z"/>
<path d="M3054 2509 c-3 -6 -1 -16 5 -22 9 -9 14 -8 21 3 9 15 4 30 -10 30 -5
0 -12 -5 -16 -11z"/>
<path d="M2980 2445 c-10 -12 -10 -15 3 -15 19 0 31 16 18 24 -5 3 -14 -1 -21
-9z"/>
<path d="M2920 2421 c0 -5 9 -7 20 -4 11 3 20 7 20 9 0 2 -9 4 -20 4 -11 0
-20 -4 -20 -9z"/>
<path d="M2720 2348 c0 -3 6 -8 13 -11 9 -4 9 -7 0 -17 -10 -11 -14 -9 -22 11
-9 22 -10 22 -11 -11 0 -22 -3 -30 -8 -22 -7 9 -13 8 -27 -8 -10 -11 -13 -20
-7 -20 7 0 12 -6 12 -14 0 -12 34 -41 53 -44 4 -1 24 -9 44 -17 21 -9 39 -12
41 -7 2 6 13 8 25 5 35 -8 67 -25 61 -35 -3 -4 0 -8 5 -8 6 0 11 6 11 13 0 7
7 4 15 -7 16 -21 19 -14 15 33 -1 18 2 22 14 18 11 -4 16 -1 16 11 0 9 10 22
23 27 14 7 22 19 22 35 0 21 -4 25 -29 23 -17 -1 -35 2 -42 8 -8 7 -13 6 -16
-3 -3 -8 -14 -3 -31 16 -23 25 -27 26 -28 10 0 -18 -1 -18 -8 1 l-8 20 -5 -20
-6 -20 -1 20 c-1 18 -8 20 -61 20 -33 0 -60 -3 -60 -7z"/>
<path d="M2661 2321 c-8 -5 -9 -11 -3 -15 5 -3 12 1 16 9 6 17 6 18 -13 6z"/>
<path d="M2920 2118 c0 -6 -8 -20 -17 -30 -14 -15 -14 -21 -3 -31 10 -10 12
-9 7 6 -4 11 -1 17 7 17 8 0 16 11 18 25 3 14 1 25 -3 25 -5 0 -9 -5 -9 -12z"/>
<path d="M2775 2040 c-3 -5 -1 -10 4 -10 6 0 11 5 11 10 0 6 -2 10 -4 10 -3 0
-8 -4 -11 -10z"/>
<path d="M3415 1860 c-3 -5 -1 -10 4 -10 6 0 11 5 11 10 0 6 -2 10 -4 10 -3 0
-8 -4 -11 -10z"/>
<path d="M3181 1704 c0 -11 3 -14 6 -6 3 7 2 16 -1 19 -3 4 -6 -2 -5 -13z"/>
<path d="M3045 3180 c-3 -5 1 -10 10 -10 9 0 13 5 10 10 -3 6 -8 10 -10 10 -2
0 -7 -4 -10 -10z"/>
<path d="M2435 3050 c-3 -5 -1 -10 4 -10 6 0 11 5 11 10 0 6 -2 10 -4 10 -3 0
-8 -4 -11 -10z"/>
</g>
</svg>
