<?xml version="1.0" standalone="no"?>
<!DOCTYPE svg PUBLIC "-//W3C//DTD SVG 20010904//EN"
 "http://www.w3.org/TR/2001/REC-SVG-20010904/DTD/svg10.dtd">
<svg version="1.0" xmlns="http://www.w3.org/2000/svg"
 width="860.000000pt" height="860.000000pt" viewBox="0 0 860.000000 860.000000"
 preserveAspectRatio="xMidYMid meet">
<metadata>
Created by potrace 1.11, written by Peter Selinger 2001-2013
</metadata>
<g transform="translate(0.000000,860.000000) scale(0.100000,-0.100000)"
fill="#000000" stroke="none">
<path d="M4735 8316 c-79 -14 -102 -24 -164 -74 -67 -54 -84 -72 -120 -125
-35 -51 -60 -66 -109 -65 -16 1 -40 -6 -53 -16 -29 -20 -40 -21 -33 -1 14 36
-62 9 -112 -40 -18 -18 -58 -45 -67 -45 -13 0 9 53 27 66 20 15 20 16 -14 10
-19 -4 -80 -11 -135 -16 -55 -6 -111 -15 -125 -20 -14 -6 -67 -17 -118 -24
-58 -9 -111 -24 -142 -40 -27 -14 -56 -26 -64 -26 -8 0 -28 -11 -44 -25 -17
-14 -41 -25 -54 -25 -14 0 -33 -10 -44 -21 -10 -12 -38 -31 -60 -43 -70 -35
-146 -92 -195 -144 -26 -27 -59 -52 -74 -56 -40 -10 -183 -162 -196 -208 -5
-21 -20 -48 -33 -60 -13 -13 -45 -63 -71 -112 -25 -49 -55 -100 -65 -115 -11
-14 -26 -53 -35 -85 -8 -33 -22 -67 -30 -77 -9 -9 -18 -40 -20 -69 -2 -28 -8
-57 -13 -63 -14 -18 -42 -184 -43 -252 -1 -99 11 -458 17 -485 3 -14 9 -77 14
-140 10 -138 16 -180 29 -193 6 -6 6 -19 1 -33 -6 -15 -5 -24 3 -27 8 -3 1
-16 -17 -35 -24 -26 -27 -34 -16 -47 9 -11 9 -15 1 -15 -12 0 -71 -38 -84 -55
-18 -23 3 -97 37 -136 46 -50 63 -85 82 -166 32 -140 75 -262 107 -305 66 -87
174 -117 447 -125 203 -6 306 6 392 47 44 20 118 84 118 102 0 4 4 8 10 8 11
0 -18 -66 -40 -91 -26 -30 -35 -44 -38 -59 -1 -9 3 -7 12 5 8 11 27 34 42 50
15 17 43 78 63 135 21 58 45 121 54 140 29 63 87 210 87 220 0 6 9 30 21 55
19 41 24 45 58 45 33 -1 75 -21 77 -38 0 -4 3 -14 6 -22 3 -8 18 -60 33 -115
15 -55 33 -113 40 -130 37 -83 47 -103 70 -140 13 -21 22 -43 19 -47 -3 -4 4
-18 15 -30 12 -12 21 -28 21 -35 0 -7 9 -17 19 -23 11 -5 29 -25 41 -44 13
-22 26 -33 36 -29 7 3 14 0 14 -7 0 -7 7 -10 15 -6 8 3 20 -1 27 -8 18 -17 57
-26 64 -15 3 5 20 9 37 8 18 -1 40 2 50 6 12 5 17 3 15 -5 -2 -7 16 -19 38
-28 40 -15 42 -14 65 8 13 13 18 20 12 16 -7 -4 -13 -2 -13 3 0 6 -12 12 -27
12 -25 2 -24 2 7 9 23 5 28 8 13 9 -13 0 -23 4 -23 9 0 4 18 6 39 4 61 -6 333
16 419 34 145 30 211 74 253 168 9 23 31 106 48 185 27 127 49 182 59 151 5
-14 42 8 42 25 0 21 49 55 80 55 15 0 33 6 39 14 10 11 63 30 119 42 23 5 41
-51 43 -137 2 -111 -8 -213 -21 -217 -5 -2 -10 -17 -10 -32 0 -51 -21 -131
-32 -124 -8 5 -9 -6 -5 -32 4 -25 2 -49 -7 -65 -7 -14 -17 -48 -21 -75 -4 -27
-12 -52 -18 -56 -9 -6 -9 -10 -1 -15 7 -5 8 -16 3 -28 -4 -11 -8 -14 -8 -6 -2
28 -13 2 -17 -39 -2 -23 -6 -45 -9 -50 -3 -5 -1 -11 4 -14 6 -4 4 -17 -4 -33
-11 -20 -11 -30 -3 -40 8 -10 7 -17 -6 -26 -9 -7 -19 -25 -22 -42 -3 -16 -10
-35 -15 -41 -5 -7 -11 -25 -12 -42 -1 -23 -5 -28 -14 -20 -7 6 -10 15 -6 22 3
6 2 7 -3 3 -5 -5 -9 -16 -9 -25 0 -10 -9 -18 -22 -20 -19 -3 -21 -8 -17 -35 4
-22 3 -28 -4 -18 -6 8 -15 10 -22 6 -9 -5 -11 -4 -6 3 4 7 1 12 -6 12 -7 0
-19 -9 -26 -20 -16 -26 -24 -25 -63 8 -21 17 -31 21 -27 11 4 -11 1 -16 -10
-15 -9 0 -17 -3 -18 -9 -1 -5 -5 -20 -9 -32 -7 -22 -7 -22 -28 -2 -23 21 -27
22 -46 10 -9 -6 -10 -11 -2 -15 6 -4 9 -12 5 -17 -3 -5 -14 1 -24 13 -18 21
-19 21 -20 4 0 -18 -1 -18 -18 -3 -10 10 -21 14 -25 11 -3 -3 -3 3 -1 14 6 21
-21 39 -32 21 -4 -6 -15 -4 -29 5 -22 15 -25 14 -35 -2 -9 -14 -10 -12 -5 11
4 23 1 29 -19 37 -14 5 -34 17 -45 27 -40 37 -51 44 -60 39 -5 -3 -25 1 -45 9
-20 8 -36 12 -36 9 0 -4 -10 5 -23 19 -12 15 -31 27 -42 27 -11 0 -43 25 -72
56 -49 52 -111 94 -139 94 -7 0 -14 7 -18 15 -3 8 -12 15 -20 15 -8 0 -16 4
-18 9 -3 10 -142 81 -158 81 -5 0 -10 -5 -10 -11 0 -5 5 -7 12 -3 8 5 9 0 5
-15 -3 -14 0 -24 8 -27 7 -3 25 -23 40 -44 24 -35 26 -41 15 -81 -20 -73 -42
-86 -155 -91 -22 -1 -47 -5 -56 -9 -9 -5 -21 -3 -27 3 -7 7 -19 6 -39 -5 -50
-28 -161 -77 -170 -76 -20 3 -34 -2 -28 -11 4 -7 -2 -9 -19 -4 -17 4 -26 2
-26 -6 0 -9 -13 -10 -46 -5 -31 4 -50 2 -61 -7 -13 -10 -17 -10 -20 0 -7 19
-23 14 -23 -8 0 -11 -4 -20 -10 -20 -5 0 -10 5 -10 12 0 6 -3 9 -6 5 -7 -7
-15 0 -67 66 -38 46 -97 88 -97 67 0 -5 4 -10 10 -10 5 0 6 -7 3 -17 -4 -11
-3 -14 5 -9 7 4 12 3 12 -2 0 -5 -13 -12 -29 -14 -23 -3 -27 -1 -23 14 2 10 7
18 11 18 10 0 6 41 -8 75 -16 38 -11 70 25 167 24 63 27 79 16 90 -9 9 -15 9
-20 2 -4 -5 -36 -19 -71 -31 -37 -12 -58 -23 -52 -28 9 -5 7 -11 -6 -21 -21
-16 -47 -19 -38 -4 3 6 -1 7 -9 4 -19 -7 -20 -16 -3 -33 10 -10 6 -12 -18 -9
-19 2 -30 -2 -31 -9 -1 -7 -3 -16 -4 -20 -1 -5 -2 -11 -1 -15 0 -5 -8 -8 -19
-8 -11 0 -20 -7 -20 -15 0 -8 -4 -15 -9 -15 -5 0 -18 -16 -30 -35 -15 -25 -27
-35 -46 -35 -14 0 -25 -5 -25 -11 0 -14 -41 -48 -57 -49 -7 0 -13 -7 -13 -15
0 -9 -9 -15 -24 -15 -18 0 -25 -7 -29 -30 -4 -16 -19 -48 -34 -71 -22 -34 -25
-44 -15 -60 10 -16 9 -22 -8 -39 -11 -11 -20 -15 -20 -10 0 7 -7 7 -20 0 -19
-10 -20 -9 -14 17 7 25 6 27 -9 15 -9 -8 -17 -22 -19 -33 -2 -11 -7 -20 -13
-19 -13 0 -14 21 -2 38 7 9 5 11 -9 6 -10 -4 -25 -11 -31 -17 -9 -6 -13 -6
-13 2 0 7 -3 10 -7 8 -13 -8 -28 16 -32 48 -1 17 -9 41 -17 55 -13 25 -13 25
-14 -12 0 -21 5 -38 11 -38 6 0 9 -7 5 -15 -6 -15 22 -87 37 -93 4 -2 4 -8 1
-13 -3 -6 0 -16 6 -24 7 -8 10 -15 7 -15 -6 0 49 -129 58 -138 2 -2 13 1 24 7
17 10 20 9 15 -4 -4 -8 -12 -15 -20 -15 -18 0 -18 -19 1 -26 18 -7 48 -58 81
-138 15 -33 28 -63 30 -65 2 -2 14 4 26 15 23 19 23 19 0 -7 l-23 -26 22 -39
c12 -22 30 -51 40 -66 11 -14 19 -29 19 -33 0 -4 14 -27 30 -52 17 -24 30 -47
30 -52 0 -4 11 -18 25 -31 14 -13 25 -29 25 -36 0 -7 13 -28 29 -46 19 -22 32
-50 36 -81 7 -42 3 -58 -31 -132 -29 -68 -43 -87 -63 -92 -13 -3 -36 -12 -50
-19 -14 -8 -32 -14 -39 -14 -7 0 -32 -10 -55 -22 -23 -12 -53 -23 -67 -24 -41
-4 -134 -25 -145 -34 -5 -4 -29 -10 -53 -13 -55 -7 -192 -71 -192 -90 0 -18
-61 -32 -71 -16 -12 21 -28 0 -35 -48 -7 -47 -7 -47 -25 -25 -20 26 -53 20
-44 -8 3 -11 0 -20 -10 -24 -8 -3 -15 -2 -15 2 0 13 -55 31 -95 30 -47 0 -115
-26 -115 -43 0 -6 -11 -17 -25 -23 -20 -9 -25 -9 -25 3 0 8 -6 12 -14 9 -8 -3
-12 -12 -10 -19 4 -9 -6 -16 -30 -21 -20 -3 -36 -10 -36 -14 0 -5 -13 -11 -30
-15 -16 -4 -34 -14 -39 -22 -7 -14 -10 -13 -15 5 -8 25 -28 28 -46 8 -6 -8
-18 -12 -26 -9 -9 3 -18 -5 -25 -26 -12 -35 -21 -38 -39 -16 -12 14 -16 13
-40 -10 -19 -18 -29 -22 -37 -14 -14 14 -53 -6 -53 -27 0 -11 -6 -13 -20 -9
-27 9 -60 -12 -61 -38 0 -12 -3 -16 -6 -9 -7 18 -27 15 -48 -8 -10 -11 -26
-20 -35 -20 -10 0 -30 -10 -45 -22 -27 -21 -60 -41 -115 -70 -75 -39 -147 -95
-248 -193 -115 -111 -142 -147 -142 -185 0 -11 -7 -23 -15 -26 -8 -4 -15 -15
-15 -25 0 -10 -7 -19 -15 -19 -8 0 -19 -17 -25 -42 -22 -84 -38 -136 -49 -154
-20 -38 -48 -147 -107 -429 -17 -82 -60 -355 -79 -505 -8 -58 -19 -141 -24
-185 -6 -44 -20 -177 -31 -295 -11 -118 -22 -227 -25 -242 l-4 -28 4019 0
4020 0 0 840 c0 850 0 846 -32 841 -5 0 -8 7 -8 18 0 24 -23 43 -44 35 -12 -5
-16 0 -16 21 0 19 -6 28 -20 32 -12 3 -19 10 -17 16 2 6 -2 18 -9 27 -7 8 -22
26 -33 40 -20 25 -20 25 -21 3 0 -16 -4 -21 -15 -17 -18 7 -20 31 -3 36 15 5
-28 47 -112 112 -79 61 -128 89 -145 82 -10 -3 -15 1 -15 12 0 10 -31 36 -78
66 -42 27 -104 66 -137 87 -33 21 -105 57 -160 79 -265 109 -388 162 -405 176
-29 23 -116 62 -295 134 -99 39 -211 85 -250 102 -186 82 -297 127 -373 152
-69 22 -132 50 -301 135 -8 4 -45 67 -82 140 -84 163 -225 377 -293 443 -62
60 -145 118 -219 153 -31 15 -58 33 -61 41 -3 9 2 32 12 52 30 60 84 224 98
297 11 60 17 84 29 121 8 23 17 77 20 120 11 145 15 156 66 184 26 14 54 31
63 39 20 16 21 41 2 41 -7 0 -19 6 -26 14 -10 13 -7 13 19 3 17 -6 34 -7 38
-3 4 5 4 10 -2 12 -5 2 -25 13 -43 24 -30 18 -32 23 -20 37 9 12 9 15 1 9 -23
-13 -36 5 -17 25 21 24 42 24 67 2 18 -17 20 -17 38 6 10 13 19 28 19 35 0 17
-50 37 -68 27 -17 -10 -52 -3 -52 11 0 22 23 97 29 94 7 -4 35 26 38 42 2 7
-6 12 -17 12 -17 0 -19 3 -11 18 5 9 14 40 20 67 5 28 14 66 19 85 l9 35 7
-35 c4 -19 5 -51 2 -71 -5 -36 -4 -37 31 -44 31 -6 39 -3 67 28 17 19 45 41
61 50 18 9 36 30 45 51 7 20 17 36 22 36 4 0 8 5 8 11 0 5 -4 8 -8 5 -4 -2
-13 4 -20 15 -7 10 -8 19 -3 19 5 0 12 -6 14 -12 4 -10 6 -10 6 0 1 7 -10 23
-24 36 -36 34 -33 56 9 56 32 0 34 -3 46 -47 l12 -48 30 80 c24 64 31 101 35
188 6 104 5 107 -15 107 -12 0 -37 -13 -55 -30 -35 -30 -70 -39 -82 -20 -3 6
-13 10 -21 10 -8 0 -13 -4 -10 -9 3 -4 -4 -17 -17 -27 -19 -16 -20 -17 -8 -1
8 9 11 20 8 23 -7 7 32 86 47 96 6 4 7 10 4 14 -4 3 -21 -5 -38 -20 -46 -38
-67 -31 -54 19 4 18 15 28 35 32 16 3 29 11 29 19 0 7 10 14 22 16 13 2 24 11
26 21 3 16 -1 18 -20 12 -20 -5 -21 -4 -8 7 17 14 17 24 18 288 0 260 1 280
19 345 14 52 24 195 25 345 1 25 -7 70 -16 100 -9 30 -18 90 -19 132 -2 75 -3
78 -26 78 -45 0 -131 112 -131 171 0 25 -7 42 -26 60 -14 13 -32 39 -40 58 -8
19 -17 32 -20 29 -12 -13 -94 87 -94 114 0 15 -50 57 -98 82 -17 9 -32 21 -32
26 0 23 -118 140 -141 140 -26 0 -47 31 -63 93 -8 32 -24 69 -36 84 -11 14
-20 30 -20 36 0 6 -11 25 -25 43 -13 17 -34 57 -45 87 -15 39 -33 66 -64 90
-73 60 -142 95 -208 107 -105 17 -120 18 -193 6z m245 -325 c0 -3 -4 -12 -9
-19 -6 -11 -9 -9 -13 5 -3 12 0 20 8 20 8 0 14 -3 14 -6z m170 -5 c0 -3 -4 -8
-10 -11 -5 -3 -10 -1 -10 4 0 6 5 11 10 11 6 0 10 -2 10 -4z m-1407 -410 c7
-16 -1 -26 -20 -26 -7 0 -13 9 -13 20 0 23 25 27 33 6z m-41 -116 c12 0 17 4
12 12 -5 8 -2 9 11 5 9 -4 24 -2 31 4 11 9 14 5 14 -26 0 -28 5 -38 20 -42 10
-3 22 -13 25 -23 3 -9 14 -25 25 -35 19 -17 20 -17 20 2 0 39 48 36 50 -2 0
-5 7 -18 15 -28 12 -17 13 -11 10 50 l-4 68 20 -24 c14 -18 19 -19 19 -7 0 18
20 17 35 -1 12 -15 27 -7 43 22 10 18 11 17 12 -12 0 -17 5 -35 10 -38 6 -3
10 1 10 11 0 13 3 14 15 4 8 -7 15 -27 15 -46 0 -18 4 -35 9 -38 5 -4 7 4 3
16 -4 17 -2 20 11 15 13 -5 20 5 34 43 10 28 20 50 24 50 3 0 4 -24 3 -52 -2
-29 -1 -47 2 -40 8 17 24 15 24 -3 0 -8 5 -15 11 -15 7 0 8 11 4 30 -4 19 -3
30 4 30 6 0 11 -7 11 -16 0 -8 4 -13 9 -10 5 3 19 -11 32 -32 l23 -37 6 30 c5
27 6 28 14 10 7 -19 8 -18 22 8 14 26 34 37 34 18 0 -5 9 -7 19 -4 13 3 21 -2
26 -16 7 -24 35 -29 35 -6 0 8 4 15 9 15 5 0 16 3 25 6 12 5 16 0 16 -20 0
-40 35 -35 45 7 8 32 8 32 16 -16 4 -27 9 -51 12 -53 2 -2 18 14 36 36 18 22
36 38 40 36 5 -3 14 7 21 22 l13 27 6 -24 c6 -21 8 -22 19 -8 7 8 21 13 32 10
11 -3 20 -1 20 4 0 5 16 15 35 23 19 7 37 22 40 31 4 10 15 21 26 24 10 4 19
12 19 20 0 16 27 28 35 14 4 -5 12 -6 18 -2 12 7 -9 -21 -52 -69 -14 -16 -20
-28 -13 -28 6 0 14 5 17 10 10 16 25 12 25 -7 0 -12 3 -14 8 -6 4 6 32 13 62
15 30 1 65 9 78 16 19 12 22 12 17 1 -3 -8 -1 -20 4 -28 8 -12 14 -12 44 2 19
10 42 15 50 12 19 -8 11 -48 -14 -63 -17 -11 -21 -9 -28 9 -5 16 -10 19 -15
10 -4 -6 -3 -18 3 -25 6 -7 9 -15 6 -18 -3 -3 29 -3 72 -1 51 2 79 -1 84 -9 4
-6 33 -13 64 -16 48 -4 58 -8 65 -28 5 -13 14 -24 20 -24 5 0 10 -5 10 -11 0
-17 -62 -2 -77 17 -7 10 -19 14 -28 10 -24 -9 -11 -21 37 -35 65 -20 87 -32
94 -53 3 -10 12 -18 20 -18 9 0 14 -7 12 -17 -2 -10 3 -17 10 -15 6 1 12 -7
12 -18 0 -12 9 -39 20 -61 13 -24 19 -49 15 -62 -5 -16 -4 -18 3 -8 7 10 12 2
17 -29 4 -23 16 -49 26 -58 10 -9 19 -22 19 -29 0 -7 6 -23 13 -34 9 -17 9
-23 0 -26 -14 -5 -9 -67 9 -114 14 -40 17 -83 6 -90 -12 -7 19 -119 32 -119 4
0 10 -7 13 -15 5 -11 0 -13 -25 -8 -22 4 -29 3 -24 -6 4 -6 11 -9 16 -6 4 2
12 -13 18 -36 8 -30 7 -39 -1 -36 -7 2 -13 16 -15 30 -2 15 -8 25 -13 22 -11
-8 -12 -98 0 -110 12 -15 35 -105 27 -112 -3 -3 -6 -1 -6 5 0 7 -4 12 -9 12
-6 0 -3 -16 5 -36 12 -29 13 -39 2 -51 -15 -19 -20 -73 -6 -70 6 1 12 -24 14
-57 2 -32 8 -72 13 -90 15 -46 8 -169 -11 -198 -27 -42 -242 -92 -314 -74 -13
4 -22 11 -19 16 3 6 -5 14 -19 20 -14 5 -26 14 -26 19 0 5 -15 12 -32 14 -31
4 -30 4 7 6 33 1 37 3 22 12 -10 6 -21 9 -24 6 -3 -3 -24 3 -48 13 -24 10 -47
15 -51 12 -4 -4 -4 1 -1 11 4 10 2 17 -6 17 -7 0 -24 7 -39 14 -40 21 -178 55
-218 54 -19 -1 -51 2 -70 6 -24 5 -31 5 -21 -2 11 -8 9 -11 -8 -17 -12 -4 -27
-2 -34 3 -8 6 -35 6 -77 -1 -60 -9 -129 -11 -269 -8 -30 1 -57 -3 -60 -8 -3
-5 -15 -11 -26 -13 -14 -2 -21 3 -23 20 -3 22 -42 33 -42 11 0 -5 4 -8 8 -5 5
3 9 -1 9 -8 0 -8 -8 -11 -19 -9 -26 8 -68 -5 -68 -21 0 -8 -9 -12 -25 -11 -16
2 -25 -2 -25 -11 0 -8 -7 -14 -15 -14 -8 0 -15 -4 -15 -10 0 -5 -7 -10 -15
-10 -8 0 -15 -7 -15 -16 0 -12 -6 -15 -21 -11 -15 4 -19 2 -15 -9 3 -8 -1 -17
-9 -20 -8 -4 -15 -12 -15 -20 0 -22 -43 -61 -77 -68 -22 -5 -30 -12 -26 -22 6
-15 -1 -17 -34 -8 -13 4 -20 10 -17 15 3 5 -2 9 -10 9 -9 0 -16 -7 -16 -15 0
-9 9 -15 25 -15 14 0 25 -4 25 -10 0 -5 -13 -10 -30 -10 -16 0 -30 5 -30 11 0
5 -4 7 -10 4 -6 -3 -7 1 -4 9 4 10 1 16 -10 16 -18 0 -40 36 -41 65 0 13 -8
21 -23 23 -12 2 -20 7 -18 11 13 20 -16 32 -82 34 -39 1 -69 4 -66 6 7 7 -189
70 -199 64 -5 -3 -34 -6 -65 -8 -87 -4 -206 -17 -217 -23 -5 -4 -25 -5 -43 -3
-20 2 -32 -1 -28 -7 3 -5 -3 -12 -14 -15 -11 -3 -18 -2 -16 2 3 4 -29 7 -70 7
-41 0 -74 -4 -74 -9 0 -5 -11 -7 -24 -5 -14 3 -31 1 -38 -4 -10 -7 -8 -8 5 -4
9 3 17 2 17 -3 0 -15 -31 -35 -58 -39 -34 -4 -40 -11 -22 -22 11 -7 11 -10 3
-11 -7 -1 -18 -2 -25 -3 -6 0 -13 -7 -16 -15 -3 -9 1 -11 17 -6 11 3 21 2 21
-2 0 -9 -140 -34 -149 -27 -3 3 -5 22 -16 194 -3 52 -12 136 -20 185 -23 139
-32 300 -22 410 5 55 10 114 11 130 5 69 20 142 37 194 11 30 19 64 19 76 0
12 3 25 7 29 7 6 8 11 19 78 3 20 15 44 25 54 10 9 19 25 19 35 0 28 11 49 27
49 8 0 12 4 9 9 -3 4 3 16 14 26 11 10 20 23 20 28 0 6 23 32 50 59 28 26 50
52 50 56 0 13 69 82 81 82 15 0 39 26 39 42 0 17 45 37 69 31 14 -3 20 2 23
21 3 15 1 26 -6 27 -7 0 -7 2 1 5 7 3 21 0 33 -6 11 -6 20 -7 19 -3 -3 19 2
25 14 15 16 -14 67 -3 67 14 0 19 13 17 43 -6 16 -13 28 -16 32 -10 10 17 75
12 75 -5 0 -16 16 -20 24 -6 3 5 19 8 36 7 34 -2 34 -2 20 25 -7 13 -8 25 -1
37 9 15 11 13 21 -15 7 -18 20 -35 31 -38 10 -4 19 -13 19 -21 0 -10 5 -12 13
-7 11 7 42 11 115 15 17 1 32 3 32 4 0 2 -7 29 -15 61 -8 31 -15 71 -14 88 0
24 5 18 21 -32 16 -48 25 -63 40 -63z m328 90 c0 -5 -4 -10 -10 -10 -5 0 -10
5 -10 10 0 6 5 10 10 10 6 0 10 -4 10 -10z m101 -71 c5 -8 9 -21 9 -29 0 -12
-2 -12 -9 -1 -6 9 -11 10 -15 2 -11 -17 -26 -3 -26 24 0 26 25 29 41 4z m416
-11 c-3 -7 -5 -2 -5 12 0 14 2 19 5 13 2 -7 2 -19 0 -25z m-1197 2 c0 -13 -28
-25 -38 -16 -3 4 0 11 8 16 20 13 30 12 30 0z m464 -12 c-8 -27 -12 -33 -19
-27 -7 8 7 49 17 49 5 0 6 -10 2 -22z m77 -41 c-8 -8 -11 0 -10 29 1 39 1 39
11 11 7 -21 7 -32 -1 -40z m39 42 c0 -6 -4 -7 -10 -4 -5 3 -10 11 -10 16 0 6
5 7 10 4 6 -3 10 -11 10 -16z m-740 -19 c0 -13 -11 -13 -30 0 -12 8 -11 10 8
10 12 0 22 -4 22 -10z m343 3 c-7 -2 -19 -2 -25 0 -7 3 -2 5 12 5 14 0 19 -2
13 -5z m47 -33 c0 -5 -5 -10 -11 -10 -5 0 -7 5 -4 10 3 6 8 10 11 10 2 0 4 -4
4 -10z m1770 -50 c0 -5 -4 -10 -10 -10 -5 0 -10 5 -10 10 0 6 5 10 10 10 6 0
10 -4 10 -10z m-120 -1630 c0 -5 -4 -10 -10 -10 -5 0 -10 5 -10 10 0 6 5 10
10 10 6 0 10 -4 10 -10z m380 -89 c-18 -11 -97 -26 -89 -18 5 6 72 24 94 26 6
0 3 -4 -5 -8z m200 -41 c0 -5 -4 -10 -10 -10 -5 0 -10 5 -10 10 0 6 5 10 10
10 6 0 10 -4 10 -10z m-170 -15 c0 -18 -78 -41 -93 -26 -7 7 1 14 24 23 45 19
69 20 69 3z m260 -35 c0 -5 -2 -10 -4 -10 -3 0 -8 5 -11 10 -3 6 -1 10 4 10 6
0 11 -4 11 -10z m-3156 -16 c9 -8 16 -19 16 -24 0 -12 -37 -23 -50 -15 -17 11
-11 -7 8 -21 29 -22 -8 -17 -43 6 -16 11 -25 20 -20 20 6 0 3 5 -5 10 -13 9
-12 12 4 25 26 20 70 19 90 -1z m3123 -51 c-9 -9 -30 12 -33 33 -2 14 1 13 19
-4 11 -12 18 -25 14 -29z m152 16 c6 -18 11 -52 11 -75 0 -42 -1 -44 -29 -44
-17 0 -33 -5 -37 -11 -5 -8 -10 -6 -16 5 -5 9 -18 16 -28 16 -24 0 -26 15 -4
24 9 4 14 13 10 21 -3 9 0 15 10 15 8 0 17 7 21 16 3 8 12 13 19 10 8 -3 11 0
7 10 -6 17 3 44 16 44 5 0 14 -14 20 -31z m-3307 -196 c25 -24 51 -43 57 -43
6 0 11 -4 11 -9 0 -5 14 -12 30 -16 17 -4 30 -11 30 -17 0 -6 3 -8 6 -5 4 3
16 0 28 -8 25 -18 60 -19 85 -3 15 9 22 8 36 -5 12 -13 13 -17 3 -19 -7 0 29
-4 80 -8 127 -9 137 -23 34 -47 l-57 -13 90 2 c136 2 163 -1 162 -14 -1 -39 4
-68 13 -68 6 0 10 7 10 16 0 12 5 15 23 9 59 -20 104 -17 156 9 28 15 56 24
61 21 6 -4 10 -2 10 3 0 5 14 7 30 4 24 -3 30 -1 30 14 0 15 2 16 9 5 5 -8 16
-11 24 -8 13 5 13 0 5 -31 -24 -88 -79 -171 -129 -197 -73 -38 -316 -70 -459
-60 -180 13 -275 42 -332 102 -58 60 -122 252 -135 402 l-6 73 25 -23 c13 -13
45 -43 70 -66z m398 -25 c0 -6 -6 -5 -15 2 -8 7 -15 14 -15 16 0 2 7 1 15 -2
8 -4 15 -11 15 -16z m93 -42 c9 3 17 2 17 -4 0 -13 -75 -23 -124 -17 -34 5
-37 4 -26 -10 11 -13 8 -15 -16 -15 -16 0 -36 5 -44 10 -13 8 -12 10 3 10 9 0
17 5 17 11 0 5 6 7 13 3 9 -6 9 -5 0 8 -15 17 -7 29 13 21 10 -4 12 0 8 11 -7
19 0 20 28 5 17 -9 23 -8 31 7 9 16 12 14 36 -15 19 -23 32 -30 44 -25z m2097
-91 c-16 -81 -47 -160 -76 -194 -55 -66 -219 -101 -474 -101 -170 0 -303 21
-377 58 -40 21 -87 71 -113 122 -12 23 -12 24 3 11 10 -7 17 -20 17 -28 0 -13
3 -13 15 -3 10 8 13 24 11 46 -3 20 -1 32 5 29 5 -4 9 -13 9 -22 0 -11 3 -13
13 -5 24 20 75 21 92 2 9 -10 25 -20 36 -23 16 -4 19 -2 14 16 -4 12 -3 18 2
12 4 -5 19 -11 33 -13 13 -1 27 -6 30 -11 9 -14 50 -23 50 -12 0 6 8 11 17 11
13 0 14 3 5 12 -16 16 -15 28 2 28 8 0 16 5 18 11 3 8 10 6 20 -5 10 -10 19
-12 23 -6 3 5 21 10 38 11 18 0 26 3 20 6 -30 12 -9 19 47 16 40 -2 59 1 57 8
-1 6 7 13 19 15 11 2 47 10 79 19 33 8 67 15 77 15 10 0 18 7 18 16 0 11 6 14
20 9 11 -3 32 0 47 9 31 16 65 30 73 28 50 -6 95 -4 93 6 -2 7 6 12 17 12 11
0 21 6 22 13 0 6 3 -4 5 -23 3 -19 -1 -62 -7 -95z m-777 -330 c64 -8 81 -20
39 -28 -15 -3 -28 -1 -30 4 -2 5 -8 9 -13 9 -6 0 -7 -4 -4 -10 3 -5 1 -10 -4
-10 -6 0 -11 4 -11 10 0 5 -18 14 -40 20 -42 11 -57 26 -17 17 12 -3 48 -9 80
-12z m20 -330 c20 -8 42 -23 49 -32 7 -10 18 -18 23 -18 16 0 50 -28 69 -57
21 -33 11 -36 -24 -8 -39 31 -80 24 -48 -8 9 -9 5 -12 -19 -12 -18 0 -35 5
-38 10 -3 6 -10 10 -15 10 -6 0 -1 -17 11 -37 l20 -38 -30 35 c-33 38 -41 35
-15 -6 9 -13 14 -27 11 -31 -4 -3 -15 12 -24 33 -10 21 -26 40 -36 42 -22 4
-21 0 3 -43 16 -29 17 -35 5 -35 -9 0 -20 12 -26 27 -14 38 -28 53 -45 46 -12
-4 -12 -8 1 -26 23 -33 18 -39 -10 -12 -25 26 -51 34 -40 13 4 -7 -1 -4 -9 6
-17 21 -22 58 -8 54 5 -2 21 12 37 30 15 19 34 31 41 28 8 -3 14 1 14 9 0 8 7
15 15 15 8 0 15 5 15 10 0 14 32 12 73 -5z m197 -146 c0 -14 -17 -10 -23 5 -4
10 -1 13 9 9 7 -3 14 -9 14 -14z m30 7 c0 -3 -4 -8 -10 -11 -5 -3 -10 -1 -10
4 0 6 5 11 10 11 6 0 10 -2 10 -4z m-282 -91 c-3 -3 -9 2 -12 12 -6 14 -5 15
5 6 7 -7 10 -15 7 -18z m-1488 -15 c0 -5 -2 -10 -4 -10 -3 0 -8 5 -11 10 -3 6
-1 10 4 10 6 0 11 -4 11 -10z m20 -26 c0 -3 -5 -15 -11 -27 -9 -20 -9 -20 4
-4 17 21 27 22 27 3 0 -17 -41 -44 -57 -39 -18 6 -16 33 4 55 16 17 33 24 33
12z m564 -78 c-6 -15 -24 -23 -24 -11 0 8 24 34 28 30 1 -1 0 -10 -4 -19z
m-581 -21 c-3 -9 -8 -14 -10 -11 -3 3 -2 9 2 15 9 16 15 13 8 -4z m413 -13
c-17 -16 -18 -16 -5 5 7 12 15 20 18 17 3 -2 -3 -12 -13 -22z m120 1 c-10 -10
-19 5 -10 18 6 11 8 11 12 0 2 -7 1 -15 -2 -18z m64 -14 c0 -5 -4 -8 -9 -5 -5
4 -11 0 -14 -6 -2 -7 -8 -10 -12 -6 -4 4 -4 11 0 17 8 14 35 14 35 0z m51 -22
c-8 -8 -11 -7 -11 4 0 20 13 34 18 19 3 -7 -1 -17 -7 -23z m-621 13 c0 -5 -2
-10 -4 -10 -3 0 -8 5 -11 10 -3 6 -1 10 4 10 6 0 11 -4 11 -10z m670 -9 c0 -4
-6 -8 -14 -8 -8 0 -12 6 -9 14 5 13 23 9 23 -6z m-75 -1 c-3 -5 -11 -10 -16
-10 -6 0 -7 5 -4 10 3 6 11 10 16 10 6 0 7 -4 4 -10z m155 -20 c0 -5 -4 -10
-10 -10 -5 0 -10 5 -10 10 0 6 5 10 10 10 6 0 10 -4 10 -10z m87 1 c22 -6 33
-6 36 2 2 6 10 -3 18 -21 13 -31 29 -43 29 -22 0 6 7 10 15 10 22 0 18 -18 -5
-25 -46 -15 -170 25 -170 55 0 12 35 13 77 1z m-837 -35 c0 -3 -4 -8 -10 -11
-5 -3 -10 -1 -10 4 0 6 5 11 10 11 6 0 10 -2 10 -4z m25 -16 c3 -5 1 -10 -4
-10 -6 0 -11 5 -11 10 0 6 2 10 4 10 3 0 8 -4 11 -10z m15 -40 c0 -5 -5 -10
-11 -10 -5 0 -7 5 -4 10 3 6 8 10 11 10 2 0 4 -4 4 -10z m622 -38 c9 -7 21
-11 27 -8 5 4 13 1 16 -5 4 -5 13 -8 20 -5 7 2 33 -6 57 -19 l44 -23 13 20
c17 27 69 19 121 -17 l38 -26 36 25 c51 34 111 43 137 20 10 -9 19 -24 19 -33
1 -11 7 -7 22 12 24 33 57 48 87 40 25 -6 38 -61 22 -92 -13 -24 -78 -54 -102
-48 -8 2 -24 -2 -35 -10 -18 -14 -18 -14 6 -9 48 10 125 24 140 25 8 1 26 2
40 4 14 1 26 -2 27 -8 1 -5 -9 -9 -22 -7 -19 3 -24 0 -19 -12 4 -11 0 -16 -15
-16 -14 0 -19 -5 -15 -15 4 -10 0 -15 -11 -15 -9 0 -13 -4 -10 -10 3 -5 -1
-10 -11 -10 -13 0 -14 -3 -4 -15 10 -12 9 -15 -7 -15 -33 0 -148 -63 -149 -82
-1 -13 5 -18 22 -18 13 0 24 5 24 12 0 6 3 9 6 5 3 -3 17 -2 31 4 17 6 22 6
17 -3 -4 -6 -3 -9 2 -6 5 2 29 14 54 26 25 11 57 32 72 46 15 14 30 26 34 26
10 0 74 74 74 86 0 7 10 14 23 18 13 3 35 17 50 30 15 14 29 21 32 16 3 -4 15
-6 27 -2 16 4 19 2 13 -8 -6 -10 -3 -12 14 -7 18 4 20 3 10 -9 -9 -11 -8 -14
7 -14 16 0 17 -2 4 -10 -13 -9 -13 -11 0 -20 13 -8 12 -10 -2 -10 -20 0 -24
-16 -6 -22 7 -3 2 -7 -10 -10 -15 -4 -20 -2 -16 5 5 8 3 8 -6 0 -10 -9 -11
-15 -1 -27 9 -11 8 -14 -6 -12 -10 0 -17 -5 -15 -12 1 -7 -4 -15 -12 -18 -12
-5 -9 -11 12 -31 21 -20 23 -23 7 -18 -54 19 -61 20 -46 2 12 -16 12 -17 -5
-11 -16 6 -17 5 -6 -7 17 -19 15 -30 -5 -22 -12 5 -15 2 -10 -10 5 -13 1 -17
-19 -17 -15 0 -23 -4 -19 -11 4 -6 -1 -17 -11 -24 -11 -9 -14 -14 -6 -15 6 0
12 -5 12 -10 0 -6 -7 -6 -19 2 -15 9 -22 8 -36 -5 -18 -19 -45 -23 -45 -7 0 5
-7 7 -15 4 -9 -4 -15 0 -15 10 0 9 -7 16 -15 16 -8 0 -15 -7 -15 -15 0 -11 -5
-12 -25 -5 -22 8 -25 7 -25 -12 0 -21 0 -21 -15 -2 -14 18 -14 18 -15 -5 0
-19 -3 -21 -14 -12 -11 10 -15 8 -18 -6 -4 -15 -7 -13 -18 9 -7 15 -16 25 -21
23 -4 -3 -11 0 -15 7 -6 9 -10 5 -15 -12 -7 -23 -7 -23 -8 7 -1 23 -6 32 -18
32 -31 0 -157 -1 -173 -2 -8 0 -46 2 -83 6 -47 5 -67 4 -62 -3 3 -5 15 -10 26
-10 39 0 6 -36 -35 -38 -9 0 -26 -22 -26 -34 0 -10 33 3 42 16 4 6 10 7 13 4
4 -4 -9 -17 -29 -30 -20 -13 -36 -29 -36 -36 0 -7 4 -11 8 -8 4 2 14 0 22 -5
13 -8 13 -10 0 -19 -13 -10 -13 -11 0 -9 32 3 42 -1 36 -16 -3 -9 0 -15 9 -15
8 0 15 -5 15 -11 0 -5 5 -7 11 -3 6 3 15 0 20 -7 7 -12 10 -12 18 -1 7 11 9
11 14 -2 4 -9 10 -15 14 -14 4 1 20 -4 35 -12 22 -10 30 -11 43 0 11 9 15 9
15 1 0 -7 5 -9 13 -4 15 9 58 4 74 -9 7 -5 18 -6 25 -2 10 6 10 4 -1 -9 -7 -9
-17 -14 -22 -11 -14 9 -10 -6 6 -22 11 -11 15 -12 15 -3 0 7 3 9 7 5 4 -4 8
-15 8 -24 0 -9 6 -16 13 -15 16 4 15 -12 -2 -27 -8 -6 -12 -18 -9 -26 9 -23
-7 -16 -18 9 -8 18 -9 14 -5 -20 3 -33 1 -43 -11 -43 -10 0 -12 6 -8 19 3 11
1 22 -5 26 -6 4 -13 -6 -16 -23 -4 -21 -13 -31 -30 -35 -16 -3 -24 0 -24 10 0
8 -7 21 -15 29 -8 9 -15 11 -15 6 0 -16 -52 -25 -61 -11 -4 6 -14 9 -23 6 -12
-5 -15 -14 -10 -32 3 -14 2 -25 -4 -25 -5 0 -10 6 -9 13 1 31 -4 47 -14 47 -6
0 -9 -6 -6 -14 3 -8 -4 -22 -15 -33 -21 -18 -21 -18 -9 4 17 32 14 36 -11 11
-13 -13 -22 -28 -20 -35 1 -6 -2 -14 -8 -18 -5 -3 -11 -1 -11 4 -1 6 -2 17 -3
24 -1 6 -8 11 -15 9 -10 -2 -12 5 -8 25 2 15 2 36 -2 46 -6 17 -8 17 -20 3 -7
-9 -20 -16 -29 -16 -12 0 -12 4 4 23 10 12 4 9 -14 -7 -39 -36 -54 -27 -24 14
24 31 29 54 11 48 -6 -2 -10 -7 -9 -12 1 -4 -9 -20 -23 -34 -13 -15 -29 -36
-35 -47 -8 -15 -11 -16 -12 -5 0 9 4 20 8 25 5 6 14 23 20 38 9 21 9 26 1 21
-9 -5 -10 0 -7 14 5 19 3 20 -13 11 -20 -10 -28 4 -9 16 13 8 13 25 -1 25 -6
0 -16 -13 -22 -30 -13 -35 -29 -40 -23 -7 3 12 5 28 5 35 1 6 10 12 21 12 11
0 20 5 20 11 0 6 -9 8 -21 4 -15 -5 -20 -3 -17 6 3 8 13 16 24 18 28 5 44 21
44 43 0 25 -22 19 -35 -10 -9 -21 -25 -30 -25 -14 0 4 9 22 20 40 24 40 25 43
3 35 -14 -5 -15 -3 -6 7 17 19 -6 43 -26 26 -12 -9 -13 -8 -6 3 6 11 4 13 -9
8 -9 -4 -15 -3 -13 1 3 4 0 18 -5 32 -9 23 -10 24 -22 7 -12 -16 -14 -15 -15
8 -3 53 -4 55 -17 44 -16 -13 -26 2 -13 21 14 24 10 34 -7 19 -15 -12 -16 -11
-10 8 4 13 1 27 -9 36 -10 11 -12 18 -4 23 7 4 2 12 -13 23 -17 12 -23 25 -23
52 1 26 -3 35 -12 32 -21 -8 -15 25 8 40 15 11 17 16 7 21 -9 4 -10 8 -2 11
12 6 0 52 -20 84 -7 11 -5 13 6 8 16 -6 19 8 5 30 -11 17 31 11 72 -11 22 -11
37 -14 43 -8 6 6 22 6 45 0 38 -10 68 -4 58 12 -4 6 -4 22 -1 36 7 25 15 25
48 -4z m766 -19 c-4 -26 -47 -58 -60 -45 -13 13 10 50 37 55 11 2 21 5 23 6 2
0 2 -7 0 -16z m-1300 -58 c-20 -30 -48 -54 -48 -40 0 6 61 75 66 75 2 0 -6
-16 -18 -35z m-93 -64 c-3 -6 -11 -11 -17 -11 -6 0 -6 6 2 15 14 17 26 13 15
-4z m275 -61 c0 -5 -5 -10 -11 -10 -5 0 -7 5 -4 10 3 6 8 10 11 10 2 0 4 -4 4
-10z m2074 -143 c-7 -130 -6 -133 18 -162 25 -31 51 -75 64 -110 10 -26 11
-117 2 -130 -3 -6 0 -46 8 -90 23 -134 20 -159 -39 -285 -41 -87 -103 -170
-138 -184 -16 -6 -29 -17 -29 -24 0 -32 -81 -121 -111 -122 -9 0 -22 -6 -28
-14 -7 -8 -23 -17 -36 -20 -14 -4 -25 -13 -25 -21 0 -8 -7 -15 -15 -15 -8 0
-15 -6 -15 -14 0 -7 -25 -33 -56 -57 -31 -24 -64 -60 -76 -83 -11 -23 -30 -54
-42 -71 -11 -16 -21 -43 -22 -60 -2 -16 -15 -73 -30 -125 -32 -113 -35 -153
-13 -158 9 -1 46 11 83 28 37 18 70 29 73 26 3 -3 -4 -26 -16 -51 -11 -24 -21
-48 -21 -51 0 -3 -16 -40 -35 -81 -40 -85 -148 -219 -185 -229 -88 -24 -409
-246 -402 -279 1 -8 -11 -15 -33 -19 -19 -4 -39 -15 -45 -25 -5 -10 -29 -28
-54 -39 -40 -19 -76 -57 -87 -89 -2 -7 -79 61 -171 150 -153 150 -169 168
-203 242 -21 44 -58 112 -82 152 -51 82 -59 122 -58 273 1 102 20 200 39 200
5 0 6 19 3 43 -5 37 -3 44 11 44 20 0 64 -30 110 -78 26 -27 35 -31 42 -20 4
8 4 21 0 30 -5 9 -16 36 -25 61 -22 59 -103 201 -155 270 -119 158 -228 480
-216 634 5 62 16 105 16 63 0 -10 5 -17 10 -17 6 0 10 -5 10 -11 0 -14 47 -59
61 -59 5 0 9 -6 9 -13 0 -7 13 -26 30 -42 16 -15 27 -32 24 -37 -3 -4 2 -11
10 -14 9 -3 16 -12 16 -20 0 -8 5 -14 10 -14 6 0 10 -7 10 -15 0 -8 7 -15 15
-15 8 0 15 -4 15 -10 0 -13 85 -70 104 -70 9 0 16 -7 16 -15 0 -9 8 -19 18
-22 9 -4 20 -11 25 -17 5 -8 10 -6 16 4 8 11 12 9 20 -13 6 -16 15 -25 21 -22
14 8 59 -17 105 -60 27 -24 41 -32 43 -22 4 18 62 10 62 -9 0 -8 4 -14 10 -14
5 0 7 -7 4 -15 -8 -19 22 -31 40 -16 11 9 14 8 12 -3 0 -8 15 -25 34 -38 19
-13 35 -33 36 -43 1 -11 2 -24 4 -30 1 -5 2 -13 2 -17 -2 -8 73 -38 93 -38 8
0 15 -4 15 -10 0 -5 16 -10 36 -10 38 0 83 27 77 47 -2 6 5 17 15 25 11 7 23
24 27 37 5 18 9 20 15 10 5 -7 7 -16 4 -20 -2 -4 1 -11 7 -14 6 -4 13 2 16 14
3 12 12 21 19 21 8 0 14 6 14 14 0 8 8 22 17 32 18 18 19 69 2 91 -11 12 24
43 48 43 7 0 13 11 13 25 0 27 21 33 39 12 8 -11 5 -19 -14 -37 -31 -29 -33
-60 -5 -60 11 0 20 -7 20 -15 0 -20 6 -19 30 5 11 11 27 20 35 20 8 0 15 5 15
11 0 5 -4 7 -10 4 -5 -3 -10 1 -10 9 0 8 8 20 18 25 9 6 13 11 8 11 -5 0 -3 7
4 15 7 8 9 15 4 15 -5 0 -2 4 6 10 19 12 40 -6 40 -33 0 -16 3 -18 12 -9 8 8
9 21 1 46 -6 19 -8 37 -5 40 12 13 22 5 22 -19 0 -16 6 -25 15 -25 8 0 15 6
15 13 0 8 11 20 25 27 18 9 25 22 25 41 0 18 4 27 13 24 15 -6 41 14 51 40 6
16 9 17 17 5 9 -12 10 -10 6 7 -3 12 1 24 8 27 10 3 11 15 3 51 -7 33 -7 50 1
58 6 6 11 24 11 39 0 28 1 28 24 13 27 -18 32 -13 31 32 0 17 4 31 10 30 5 -1
11 15 13 36 2 20 7 35 13 32 5 -4 9 8 9 24 0 17 5 31 10 31 6 0 10 7 10 15 0
9 6 12 17 8 11 -4 14 -3 9 6 -5 7 -5 28 -1 47 5 27 9 33 19 25 10 -8 16 -5 24
15 7 14 12 36 12 49 0 13 6 25 13 28 9 3 9 8 -2 21 -8 9 -11 19 -8 23 4 3 9
-2 13 -11 9 -24 21 -19 32 14 8 21 16 28 26 24 9 -3 16 -2 16 4 0 6 -4 12 -10
14 -12 4 9 78 22 78 5 0 7 4 4 9 -4 5 5 23 19 39 13 16 29 41 34 56 6 14 15
26 21 26 7 0 8 -42 4 -133z m-1501 -138 c-8 -8 -13 -7 -18 2 -5 8 -4 10 3 5 7
-4 12 -2 12 5 0 7 3 9 7 6 4 -4 2 -12 -4 -18z m487 -4 c6 -4 9 -13 7 -19 -3
-7 -1 -19 3 -27 5 -8 5 -16 -1 -20 -7 -4 -3 -19 10 -40 25 -41 26 -50 4 -42
-12 5 -15 2 -10 -10 3 -9 2 -17 -2 -17 -5 0 -12 7 -15 16 -4 9 -9 14 -13 11
-3 -4 6 -25 21 -47 35 -53 33 -68 -4 -28 -17 18 -28 25 -24 16 4 -13 1 -15
-15 -11 -18 4 -21 1 -21 -23 0 -16 -7 -37 -14 -47 -13 -16 -14 -16 -28 5 -16
24 -38 17 -38 -13 0 -11 -5 -17 -10 -14 -7 4 -6 13 1 27 8 16 8 24 -3 34 -12
12 -14 8 -15 -28 -1 -23 2 -47 8 -54 7 -8 7 -14 -1 -19 -5 -3 -10 1 -10 10 0
12 -5 15 -16 11 -13 -5 -14 -1 -9 27 14 61 33 97 50 91 11 -4 14 -2 9 9 -3 8
-1 18 5 22 8 4 8 12 1 25 -7 13 -5 21 7 31 10 8 14 9 10 2 -4 -6 -3 -14 2 -17
12 -8 41 32 41 56 0 10 4 18 9 18 4 0 6 -11 4 -24 -7 -33 11 -40 27 -11 14 25
6 95 -10 95 -6 0 -10 -4 -10 -10 0 -5 -7 -7 -15 -4 -8 4 -15 12 -15 19 0 13
59 13 80 0z m-540 -42 c-11 -17 -11 -17 -6 0 3 10 7 26 7 35 1 15 2 15 6 0 2
-10 -1 -25 -7 -35z m604 11 c4 -9 2 -13 -5 -8 -6 4 -15 0 -20 -7 -11 -18 -21
-6 -13 15 8 20 30 21 38 0z m-927 -15 c-9 -6 -15 -14 -12 -20 4 -5 1 -9 -4 -9
-6 0 -11 4 -11 8 0 12 22 32 35 32 5 0 2 -5 -8 -11z m-62 -29 c-10 -11 -21
-18 -23 -15 -3 3 3 12 14 20 27 20 30 18 9 -5z m88 -9 c-9 -12 -23 -21 -31
-21 -7 0 0 11 15 24 33 29 42 27 16 -3z m902 9 c3 -5 -3 -10 -15 -10 -12 0
-18 5 -15 10 3 6 10 10 15 10 5 0 12 -4 15 -10z m-1075 -30 c0 -5 -4 -10 -10
-10 -5 0 -10 5 -10 10 0 6 5 10 10 10 6 0 10 -4 10 -10z m180 -14 c0 -3 -13
-11 -30 -20 -16 -8 -30 -10 -30 -5 0 5 10 14 23 19 25 10 37 12 37 6z m20 -26
c0 -5 -8 -10 -17 -10 -15 0 -16 2 -3 10 19 12 20 12 20 0z m601 -117 c-9 -15
-10 -12 -10 17 0 29 1 32 10 18 7 -12 7 -24 0 -35z m293 -24 c-8 -13 -24 -1
-24 18 0 13 3 13 15 3 8 -7 12 -16 9 -21z m-852 -31 c-7 -7 -12 -8 -12 -2 0 6
3 14 7 17 3 4 9 5 12 2 2 -3 -1 -11 -7 -17z m574 -55 c-10 -10 -19 5 -10 18 6
11 8 11 12 0 2 -7 1 -15 -2 -18z m-575 -46 c-10 -9 -11 -8 -5 6 3 10 9 15 12
12 3 -3 0 -11 -7 -18z m341 -3 c-7 -12 -11 -13 -17 -4 -4 7 -2 16 6 21 18 11
23 4 11 -17z m46 -24 c-2 -5 -9 -6 -16 -1 -7 4 -10 15 -6 25 6 17 8 17 16 2 5
-9 8 -21 6 -26z m22 24 c0 -8 -5 -12 -10 -9 -6 4 -8 11 -5 16 9 14 15 11 15
-7z m-360 -25 c0 -5 -4 -8 -9 -4 -6 3 -14 -3 -20 -12 -6 -10 -11 -13 -11 -7 0
12 20 34 32 34 4 0 8 -5 8 -11z m53 -19 c-3 -11 -7 -20 -9 -20 -2 0 -4 9 -4
20 0 11 4 20 9 20 5 0 7 -9 4 -20z m-581 -5 c0 -5 -5 -11 -11 -13 -6 -2 -11 4
-11 13 0 9 5 15 11 13 6 -2 11 -8 11 -13z m-29 -45 c-3 -11 -9 -20 -14 -20
-11 0 -11 3 -3 24 9 23 23 20 17 -4z m1098 -53 c-10 -9 -11 -8 -5 6 3 10 9 15
12 12 3 -3 0 -11 -7 -18z m-1431 -6 c0 -22 -16 -36 -24 -22 -8 12 3 41 15 41
5 0 9 -9 9 -19z m291 -34 c-8 -8 -11 -7 -11 4 0 20 13 34 18 19 3 -7 -1 -17
-7 -23z m1059 -177 c0 -5 -2 -10 -4 -10 -3 0 -8 5 -11 10 -3 6 -1 10 4 10 6 0
11 -4 11 -10z m-1715 -20 c-3 -5 -12 -10 -18 -10 -7 0 -6 4 3 10 19 12 23 12
15 0z m1746 -15 c3 2 5 -5 6 -15 2 -17 -1 -18 -18 -7 -10 6 -19 18 -19 26 0
10 3 11 13 2 8 -6 16 -9 18 -6z m-2173 -57 c-7 -20 -48 -23 -48 -4 0 11 9 16
26 16 16 0 24 -5 22 -12z m2197 2 c3 -5 1 -10 -4 -10 -6 0 -11 5 -11 10 0 6 2
10 4 10 3 0 8 -4 11 -10z m357 -38 c-7 -2 -12 -12 -12 -22 0 -10 -4 -21 -9
-24 -13 -8 -42 4 -35 15 3 5 10 7 15 3 6 -3 7 4 4 19 -6 21 -3 26 17 29 24 3
40 -13 20 -20z m-2684 -44 c-5 -16 -48 -24 -48 -10 0 11 17 20 38 21 8 1 12
-5 10 -11z m-338 -97 c0 -12 -39 -25 -48 -16 -7 7 17 25 36 25 6 0 12 -4 12
-9z m1770 -632 c0 -5 -4 -9 -10 -9 -5 0 -10 7 -10 16 0 8 5 12 10 9 6 -3 10
-10 10 -16z m-3 -86 c-3 -10 -5 -2 -5 17 0 19 2 27 5 18 2 -10 2 -26 0 -35z
m33 -84 c0 -15 11 -49 25 -75 14 -26 23 -49 20 -52 -7 -8 -44 41 -45 59 0 9
-7 30 -15 45 -8 16 -15 40 -15 53 0 20 2 21 15 11 8 -7 15 -25 15 -41z m1554
-56 c-24 -65 -34 -74 -34 -30 0 20 6 40 13 44 8 4 17 17 20 27 4 10 10 16 13
13 3 -3 -2 -27 -12 -54z m-46 -85 c-6 -18 -28 -21 -28 -4 0 9 7 16 16 16 9 0
14 -5 12 -12z m-158 -188 c0 -12 -40 -34 -48 -26 -3 3 0 6 6 6 7 0 12 7 12 15
0 8 7 15 15 15 8 0 15 -4 15 -10z m-230 -30 c0 -5 -7 -10 -15 -10 -8 0 -15 5
-15 10 0 6 7 10 15 10 8 0 15 -4 15 -10z m50 -6 c0 -2 -7 -4 -15 -4 -8 0 -15
4 -15 10 0 5 7 7 15 4 8 -4 15 -8 15 -10z m-95 -4 c-3 -5 -11 -10 -16 -10 -6
0 -7 5 -4 10 3 6 11 10 16 10 6 0 7 -4 4 -10z m195 -4 c0 -8 10 -17 23 -19 16
-3 14 -5 -10 -6 -33 -1 -49 11 -38 29 9 15 25 12 25 -4z"/>
<path d="M3280 7370 c0 -5 5 -10 11 -10 5 0 7 5 4 10 -3 6 -8 10 -11 10 -2 0
-4 -4 -4 -10z"/>
<path d="M4837 7355 c-10 -14 -14 -25 -9 -25 10 0 42 33 42 43 0 14 -16 5 -33
-18z"/>
<path d="M3440 7368 c0 -3 15 -15 33 -28 l32 -24 -16 24 c-14 21 -49 41 -49
28z"/>
<path d="M5505 6190 c-7 -12 2 -30 16 -30 12 0 12 27 0 35 -5 3 -12 1 -16 -5z"/>
<path d="M5028 5853 c7 -3 16 -2 19 1 4 3 -2 6 -13 5 -11 0 -14 -3 -6 -6z"/>
<path d="M4838 5083 c7 -3 16 -2 19 1 4 3 -2 6 -13 5 -11 0 -14 -3 -6 -6z"/>
<path d="M4330 5033 c0 -5 5 -15 10 -23 8 -12 10 -11 10 8 0 12 -4 22 -10 22
-5 0 -10 -3 -10 -7z"/>
<path d="M4415 3480 c3 -5 8 -10 11 -10 2 0 4 5 4 10 0 6 -5 10 -11 10 -5 0
-7 -4 -4 -10z"/>
<path d="M3986 3145 c4 -8 8 -15 10 -15 2 0 4 7 4 15 0 8 -4 15 -10 15 -5 0
-7 -7 -4 -15z"/>
<path d="M4028 3093 c7 -3 16 -2 19 1 4 3 -2 6 -13 5 -11 0 -14 -3 -6 -6z"/>
<path d="M5031 2964 c0 -11 3 -14 6 -6 3 7 2 16 -1 19 -3 4 -6 -2 -5 -13z"/>
<path d="M4560 2474 c0 -8 5 -12 10 -9 6 4 8 11 5 16 -9 14 -15 11 -15 -7z"/>
<path d="M4406 2001 c-3 -5 0 -11 8 -14 15 -6 26 1 26 15 0 11 -27 10 -34 -1z"/>
<path d="M0 6001 c0 -110 0 -111 23 -106 12 2 53 12 91 20 90 20 184 62 191
86 17 53 -75 98 -217 107 l-88 5 0 -112z"/>
<path d="M5975 5720 c-8 -13 5 -13 25 0 13 8 13 10 -2 10 -9 0 -20 -4 -23 -10z"/>
<path d="M5730 4766 c0 -2 7 -7 16 -10 8 -3 12 -2 9 4 -6 10 -25 14 -25 6z"/>
<path d="M3320 4720 c0 -5 5 -10 11 -10 5 0 7 5 4 10 -3 6 -8 10 -11 10 -2 0
-4 -4 -4 -10z"/>
<path d="M5220 4660 c0 -5 5 -10 11 -10 5 0 7 5 4 10 -3 6 -8 10 -11 10 -2 0
-4 -4 -4 -10z"/>
<path d="M5135 4421 c-6 -11 9 -23 19 -14 9 9 7 23 -3 23 -6 0 -12 -4 -16 -9z"/>
<path d="M5097 4413 c-4 -3 2 -13 14 -21 26 -18 35 -10 11 11 -10 10 -22 14
-25 10z"/>
<path d="M5160 4390 c0 -5 7 -10 16 -10 8 0 12 5 9 10 -3 6 -10 10 -16 10 -5
0 -9 -4 -9 -10z"/>
<path d="M3890 4375 c0 -8 5 -15 10 -15 6 0 10 7 10 15 0 8 -4 15 -10 15 -5 0
-10 -7 -10 -15z"/>
<path d="M5166 4363 c-3 -3 -1 -12 5 -20 8 -9 8 -17 0 -26 -13 -17 -5 -27 24
-27 25 0 45 18 45 39 0 12 -3 12 -12 3 -15 -15 -28 -15 -28 -1 0 14 -26 39
-34 32z"/>
<path d="M5255 4319 c-10 -15 3 -25 16 -12 7 7 7 13 1 17 -6 3 -14 1 -17 -5z"/>
<path d="M5230 4261 c0 -5 5 -13 10 -16 6 -3 10 -2 10 4 0 5 -4 13 -10 16 -5
3 -10 2 -10 -4z"/>
<path d="M2365 2740 c-3 -5 -1 -10 4 -10 6 0 11 5 11 10 0 6 -2 10 -4 10 -3 0
-8 -4 -11 -10z"/>
</g>
</svg>
