<?xml version="1.0" standalone="no"?>
<!DOCTYPE svg PUBLIC "-//W3C//DTD SVG 20010904//EN"
 "http://www.w3.org/TR/2001/REC-SVG-20010904/DTD/svg10.dtd">
<svg version="1.0" xmlns="http://www.w3.org/2000/svg"
 width="427.000000pt" height="427.000000pt" viewBox="0 0 427.000000 427.000000"
 preserveAspectRatio="xMidYMid meet">
<metadata>
Created by potrace 1.11, written by Peter Selinger 2001-2013
</metadata>
<g transform="translate(0.000000,427.000000) scale(0.100000,-0.100000)"
fill="#000000" stroke="none">
<path d="M2644 4143 c5 -8 1 -13 -11 -13 -10 0 -14 -4 -8 -8 6 -4 11 -13 13
-21 3 -12 0 -12 -13 -1 -13 11 -15 8 -10 -26 3 -30 2 -35 -6 -21 -14 23 -29
22 -29 -3 0 -11 -6 -23 -14 -26 -17 -7 -56 25 -56 46 0 13 -1 13 -10 0 -7 -11
-10 -11 -10 -2 0 9 -5 10 -19 3 -14 -8 -22 -7 -31 4 -8 9 -21 13 -31 10 -11
-4 -19 -2 -19 3 0 11 -25 10 -36 -1 -4 -4 -12 -7 -18 -7 -6 0 -4 5 4 10 20 13
-5 14 -29 1 -13 -7 -18 -6 -18 4 0 8 5 11 11 8 6 -3 7 -2 3 2 -13 15 -39 15
-33 0 5 -15 -18 -10 -42 8 -9 7 -11 6 -7 -6 4 -8 1 -18 -6 -23 -8 -5 -10 -3
-4 6 6 10 4 12 -8 7 -10 -4 -14 -2 -11 6 3 9 -5 13 -24 12 -20 0 -28 -4 -25
-13 4 -8 0 -10 -13 -5 -12 4 -15 3 -10 -6 6 -9 3 -9 -13 1 -12 7 -21 16 -21
20 0 5 -5 8 -11 8 -5 0 -7 -5 -3 -12 4 -7 3 -8 -5 -4 -8 5 -9 12 -2 19 7 9 1
13 -20 14 -16 1 -29 -2 -29 -7 0 -5 8 -7 18 -4 14 5 15 4 2 -5 -11 -8 -18 -7
-25 3 -10 13 -39 4 -58 -19 -5 -5 -5 1 -2 15 7 24 7 24 -9 5 -8 -11 -16 -15
-16 -8 0 6 -9 9 -20 6 -11 -3 -17 -9 -14 -14 5 -9 -37 -13 -84 -9 -25 2 -62
-29 -62 -52 -1 -8 -7 -5 -17 7 -12 16 -14 16 -10 3 3 -10 2 -20 -4 -23 -5 -4
-7 -10 -4 -15 3 -4 -3 -6 -14 -3 -10 3 -22 0 -25 -6 -4 -5 -13 -8 -20 -5 -8 3
-17 1 -21 -5 -3 -6 0 -9 8 -5 8 3 14 -1 14 -10 0 -8 -4 -13 -9 -10 -4 3 -8 2
-8 -3 0 -4 -13 -14 -28 -21 -16 -7 -29 -18 -30 -25 -3 -45 -29 -97 -49 -97 -6
0 -15 -9 -18 -20 -3 -11 -13 -20 -22 -20 -9 0 -13 -6 -9 -15 3 -8 2 -14 -2
-14 -22 4 -42 -2 -37 -10 3 -5 1 -12 -5 -16 -6 -4 -7 -12 -3 -18 4 -7 -1 -6
-11 2 -9 8 -16 10 -15 5 1 -5 1 -18 0 -29 -1 -17 -3 -18 -11 -5 -8 12 -10 10
-10 -9 0 -19 -3 -21 -14 -12 -11 9 -16 9 -22 0 -5 -8 -3 -9 6 -4 8 5 11 3 8
-5 -2 -7 -13 -14 -23 -16 -16 -2 -39 -27 -40 -44 0 -3 -4 -11 -9 -18 -4 -7 -5
-16 -2 -19 3 -3 0 -15 -5 -26 -9 -16 -13 -17 -21 -6 -8 11 -9 10 -5 -3 3 -9 0
-22 -8 -28 -8 -6 -12 -17 -9 -24 3 -8 -2 -16 -10 -19 -10 -4 -13 -1 -9 9 3 7
1 14 -5 14 -6 0 -12 -4 -14 -10 -1 -5 -13 -11 -25 -13 -12 -2 -26 -7 -30 -12
-5 -4 -2 -5 5 -1 7 4 12 1 12 -8 0 -8 -7 -19 -16 -24 -9 -5 -17 -13 -17 -18
-1 -5 -6 -8 -10 -6 -5 1 -6 -2 -2 -8 3 -6 12 -7 18 -4 9 5 9 4 0 -6 -6 -7 -9
-20 -5 -29 5 -14 4 -14 -14 -1 -15 11 -16 11 -6 0 14 -16 17 -44 3 -36 -11 7
-23 -22 -15 -35 3 -5 0 -8 -7 -7 -8 2 -12 -19 -14 -67 -2 -38 -8 -88 -13 -109
-6 -22 -9 -44 -6 -48 3 -4 -1 -8 -8 -8 -10 0 -10 -2 1 -9 8 -5 12 -18 8 -30
-3 -12 -1 -23 3 -26 4 -3 6 -14 3 -25 -3 -13 0 -20 8 -20 9 0 10 -3 3 -8 -16
-11 -23 -47 -11 -67 6 -12 6 -16 -1 -11 -6 4 -9 -8 -8 -30 2 -20 9 -40 17 -45
8 -5 10 -9 4 -9 -5 0 -2 -7 9 -15 10 -7 15 -18 11 -24 -3 -6 -2 -11 3 -11 5 0
8 -11 7 -25 -2 -14 1 -25 6 -25 5 0 8 -3 8 -7 -1 -5 0 -10 1 -13 1 -3 4 -18 6
-33 3 -15 10 -40 16 -55 6 -15 11 -30 10 -34 -1 -5 2 -8 7 -8 5 0 8 -8 7 -17
-3 -19 10 -47 31 -71 7 -7 13 -19 13 -25 0 -7 12 -23 25 -36 30 -28 35 -77 8
-66 -10 4 -32 9 -50 12 -25 4 -34 1 -48 -20 -9 -15 -15 -30 -12 -34 3 -4 8
-24 11 -43 4 -19 13 -66 21 -105 8 -38 17 -79 19 -90 14 -66 39 -143 55 -165
9 -14 23 -41 30 -60 6 -19 23 -52 36 -72 24 -37 33 -65 61 -193 4 -16 22 -63
42 -105 19 -41 36 -77 36 -80 1 -3 9 -16 18 -30 19 -27 50 -96 55 -120 1 -8 5
-89 9 -180 8 -202 11 -197 -121 -215 -85 -13 -199 -47 -229 -69 -39 -30 -421
-178 -496 -192 -14 -3 -46 -11 -72 -19 -27 -8 -48 -12 -48 -10 0 3 -12 0 -26
-6 -15 -5 -42 -12 -62 -15 -19 -3 -44 -7 -55 -10 -36 -6 -131 -35 -162 -49
-64 -28 -115 -45 -115 -38 0 4 -5 2 -12 -5 -7 -7 -19 -12 -28 -12 -24 0 -54
-29 -69 -67 -8 -18 -20 -33 -27 -33 -11 0 -14 -26 -14 -130 l0 -130 2135 0
2135 0 0 98 c0 95 -1 99 -28 125 -15 15 -33 27 -39 27 -6 0 -13 4 -15 8 -4 12
-145 62 -152 55 -3 -4 -6 0 -6 7 0 7 -3 11 -6 8 -6 -6 -90 26 -204 79 -83 39
-150 64 -150 58 0 -3 -9 -1 -21 5 -11 6 -28 13 -37 15 -9 2 -93 33 -187 69
-93 37 -174 68 -180 69 -5 2 -21 9 -35 17 -14 7 -27 13 -30 12 -11 -2 -70 31
-70 40 0 5 -5 6 -10 3 -6 -3 -10 -1 -10 5 0 6 -8 14 -17 17 -10 4 -27 15 -37
25 -11 10 -27 18 -35 19 -9 0 -45 2 -81 4 -90 3 -88 3 -108 25 -23 28 -29 111
-19 271 6 94 22 142 65 197 30 38 105 188 105 210 0 6 3 12 7 12 5 0 27 85 37
149 2 13 15 44 29 67 14 24 27 57 29 73 2 17 16 43 31 58 30 32 60 94 67 140
3 17 7 36 10 40 3 5 8 28 11 51 3 22 10 50 16 62 6 11 8 20 5 20 -3 0 1 15 8
33 20 46 13 82 -21 122 -28 31 -29 36 -21 81 9 50 39 124 49 124 3 0 6 8 7 18
0 9 4 28 7 42 4 14 8 44 10 67 3 23 8 48 12 54 4 8 3 9 -4 5 -7 -4 -12 -3 -12
3 0 5 5 13 10 16 6 4 8 11 4 16 -3 5 0 17 7 25 10 13 10 17 -2 25 -11 7 -9 9
8 9 15 0 21 5 17 14 -3 8 -1 17 4 20 5 3 6 26 2 51 -4 25 -3 45 2 45 4 0 7 3
7 8 -4 23 3 42 14 42 7 0 13 9 13 20 0 11 -3 20 -7 20 -4 0 -9 7 -12 14 -4 11
-1 13 10 9 13 -5 15 -2 10 11 -4 10 -3 15 3 11 15 -9 12 6 -5 25 -13 14 -13
17 0 17 8 0 11 -5 8 -10 -3 -6 -1 -7 6 -3 6 4 9 11 7 15 -3 4 -7 20 -10 36 -3
16 -11 32 -18 37 -10 6 -10 8 2 8 13 0 13 1 0 10 -10 6 -11 10 -3 10 7 0 12
11 11 25 -1 14 -6 25 -10 25 -4 0 -8 11 -8 24 0 14 -4 27 -9 30 -11 7 -9 25 4
45 5 10 4 16 -3 19 -7 2 -12 11 -12 20 0 8 -3 12 -7 9 -3 -4 -12 -2 -20 4 -11
10 -11 15 -1 27 10 13 10 14 1 8 -7 -4 -13 -2 -13 3 0 6 -5 11 -11 11 -5 0 -7
-5 -3 -12 4 -7 3 -8 -5 -4 -6 4 -9 11 -6 16 3 5 1 11 -5 15 -5 3 -10 2 -10 -3
0 -5 -7 -9 -15 -9 -8 0 -12 3 -10 7 2 3 0 12 -6 20 -6 10 -9 11 -9 3 0 -9 -6
-7 -18 5 -11 9 -17 20 -15 24 2 4 -6 10 -18 13 -19 6 -20 7 -2 21 12 8 13 13
5 14 -8 0 -10 5 -5 13 10 16 13 37 5 36 -4 -1 -18 -1 -31 0 -19 1 -23 5 -19
26 6 29 -10 45 -23 24 -5 -8 -9 -9 -9 -4 0 6 5 16 11 22 8 8 7 13 -2 18 -8 6
-10 4 -5 -6 4 -8 1 -6 -7 3 -8 10 -18 14 -23 10 -4 -4 -2 1 5 11 9 11 10 17 2
17 -6 0 -11 11 -11 24 0 14 -4 28 -10 31 -5 3 -10 16 -10 27 0 12 -3 18 -6 15
-13 -12 -43 13 -37 30 4 11 3 14 -5 9 -8 -5 -10 -2 -6 8 4 10 1 16 -9 16 -9 0
-19 9 -22 21 -5 15 -10 18 -18 10 -15 -15 -40 -14 -31 2 6 9 5 9 -7 0 -13 -10
-16 -10 -17 2 -5 46 -4 44 -29 28 -12 -8 -20 -20 -16 -26 3 -6 1 -7 -6 -3 -6
4 -8 12 -5 18 4 6 2 8 -4 4 -6 -3 -25 8 -44 25 -18 17 -26 28 -18 23 12 -6 13
-5 3 7 -7 9 -15 33 -19 55 -3 21 -11 42 -16 45 -6 4 -7 8 -1 10 6 2 -1 15 -15
29 -13 14 -22 19 -18 13z m-471 -48 c-3 -9 -8 -14 -10 -11 -3 3 -2 9 2 15 9
16 15 13 8 -4z m472 -25 c3 -5 1 -10 -4 -10 -6 0 -11 5 -11 10 0 6 2 10 4 10
3 0 8 -4 11 -10z m5 -24 c0 -3 -4 -8 -10 -11 -5 -3 -10 -1 -10 4 0 6 5 11 10
11 6 0 10 -2 10 -4z m107 -123 c-4 -3 -1 -13 6 -22 11 -14 10 -14 -5 -2 -21
15 -23 31 -6 31 6 0 8 -3 5 -7z m154 -60 c13 -17 13 -17 -6 -3 -11 8 -22 16
-24 17 -2 2 0 3 6 3 6 0 17 -8 24 -17z m-1632 -374 c-16 -10 -23 -4 -14 10 3
6 11 8 17 5 6 -4 5 -9 -3 -15z m-69 -43 c0 -2 -7 -7 -16 -10 -8 -3 -12 -2 -9
4 6 10 25 14 25 6z m-10 -31 c-7 -8 -17 -15 -23 -15 -6 0 -2 7 9 15 25 19 30
19 14 0z m-10 -50 c0 -2 -10 -9 -22 -15 -22 -11 -22 -10 -4 4 21 17 26 19 26
11z"/>
<path d="M2106 4108 c3 -5 10 -6 15 -3 13 9 11 12 -6 12 -8 0 -12 -4 -9 -9z"/>
<path d="M2910 3911 c0 -6 4 -13 10 -16 6 -3 7 1 4 9 -7 18 -14 21 -14 7z"/>
<path d="M3303 3315 c0 -8 4 -15 9 -15 4 0 8 4 8 9 0 6 -4 12 -8 15 -5 3 -9
-1 -9 -9z"/>
</g>
</svg>
